<?xml version="1.0" encoding="UTF-8"?>
<svg width="34px" height="40px" viewBox="0 0 34 40" version="1.1" xmlns="http://www.w3.org/2000/svg" xmlns:xlink="http://www.w3.org/1999/xlink">
    <!-- Generator: sketchtool 52.4 (67378) - http://www.bohemiancoding.com/sketch -->
    <title>47008B97-7E41-4EE3-BF9A-589B1A573C60</title>
    <desc>Created with sketchtool.</desc>
    <defs>
        <linearGradient x1="50%" y1="0%" x2="50%" y2="100%" id="linearGradient-1">
            <stop stop-color="#BAE827" offset="0%"></stop>
            <stop stop-color="#84CD11" offset="100%"></stop>
        </linearGradient>
        <path d="M31.6049383,1.58333333 L31.6049383,20.5833333 C31.6049383,22.0017432 31.3292209,23.4077621 30.7777778,24.8014323 C30.2263347,26.1951025 29.543214,27.4320693 28.7283951,28.5123698 C27.9135762,29.5926703 26.9423925,30.6440921 25.8148148,31.6666667 C24.6872372,32.6892412 23.6460953,33.5386251 22.691358,34.2148438 C21.7366207,34.8910624 20.7407459,35.5301619 19.7037037,36.1321615 C18.6666615,36.734161 17.9300433,37.14236 17.4938272,37.3567708 C17.057611,37.5711816 16.7078202,37.7361105 16.4444444,37.8515625 C16.2469126,37.9505213 16.032923,38 15.8024691,38 C15.5720153,38 15.3580257,37.9505213 15.1604938,37.8515625 C14.897118,37.7361105 14.5473273,37.5711816 14.1111111,37.3567708 C13.6748949,37.14236 12.9382768,36.734161 11.9012346,36.1321615 C10.8641923,35.5301619 9.86831753,34.8910624 8.91358025,34.2148438 C7.95884296,33.5386251 6.91770111,32.6892412 5.79012346,31.6666667 C4.6625458,30.6440921 3.6913621,29.5926703 2.87654321,28.5123698 C2.06172432,27.4320693 1.37860358,26.1951025 0.827160494,24.8014323 C0.275717407,23.4077621 0,22.0017432 0,20.5833333 L0,1.58333333 C0,1.15451174 0.156377037,0.783421706 0.469135802,0.470052083 C0.781894568,0.156682461 1.15226123,0 1.58024691,0 L30.0246914,0 C30.452677,0 30.8230437,0.156682461 31.1358025,0.470052083 C31.4485612,0.783421706 31.6049383,1.15451174 31.6049383,1.58333333 Z" id="path-2"></path>
    </defs>
    <g id="Existentes" stroke="none" stroke-width="1" fill="none" fill-rule="evenodd">
        <g id="Landing-page_Existentes_360" transform="translate(-163.000000, -2108.000000)">
            <g id="Seguro" transform="translate(24.000000, 2108.000000)">
                <g id="Icon" transform="translate(136.000000, 0.000000)">
                    <g id="icon" transform="translate(4.000000, 1.000000)">
                        <g id="shield---FontAwesome">
                            <use fill="#84CD11" fill-rule="evenodd" xlink:href="#path-2"></use>
                            <use fill="url(#linearGradient-1)" fill-rule="evenodd" xlink:href="#path-2"></use>
                            <path stroke="#FFFFFF" stroke-width="2" d="M30.6049383,1.58333333 C30.6049383,1.4218034 30.5553012,1.30401234 30.4280062,1.17646867 C30.3010842,1.04929885 30.1845514,1 30.0246914,1 L1.58024691,1 C1.42038686,1 1.30385403,1.04929885 1.17693211,1.17646867 C1.04963706,1.30401234 1,1.4218034 1,1.58333333 L1,20.5833333 C1,21.8739488 1.2512816,23.1553574 1.75701688,24.4335096 C2.27617583,25.7455876 2.91572776,26.9036618 3.67491081,27.9101994 C4.45079084,28.9388742 5.37948095,29.9442916 6.46189797,30.925911 C7.56140825,31.9230319 8.57197113,32.7474688 9.49156709,33.3987977 C10.4215828,34.0575066 11.3921108,34.6803399 12.403274,35.2673167 C13.4215155,35.8584025 14.1423696,36.2578659 14.5522291,36.4593217 C14.9764661,36.6678444 15.3140029,36.8269956 15.6084058,36.9574848 C15.6653421,36.9860086 15.7258533,37 15.8024691,37 C15.879085,37 15.9395961,36.9860086 16.0429688,36.9356928 C16.2909353,36.8269956 16.6284722,36.6678444 17.0527092,36.4593217 C17.4625686,36.2578659 18.1834227,35.8584025 19.2016642,35.2673167 C20.2128275,34.6803399 21.1833554,34.0575066 22.1133712,33.3987977 C23.0329671,32.7474688 24.04353,31.9230319 25.1430403,30.925911 C26.2254573,29.9442916 27.1541474,28.9388742 27.9300275,27.9101994 C28.6892105,26.9036618 29.3287624,25.7455876 29.8479214,24.4335096 C30.3536567,23.1553574 30.6049383,21.8739488 30.6049383,20.5833333 L30.6049383,1.58333333 Z" stroke-linejoin="square"></path>
                        </g>
                        <path d="M13.6296296,16.1160714 L18.3703704,16.1160714 L18.3703704,14.3348214 C18.3703704,13.6792192 18.1388912,13.1194917 17.6759259,12.6556222 C17.2129606,12.1917527 16.6543243,11.9598214 16,11.9598214 C15.3456757,11.9598214 14.7870394,12.1917527 14.3240741,12.6556222 C13.8611088,13.1194917 13.6296296,13.6792192 13.6296296,14.3348214 L13.6296296,16.1160714 Z M21.3333333,17.0066964 L21.3333333,22.3504464 C21.3333333,22.5978435 21.2469144,22.8081279 21.0740741,22.9813058 C20.9012337,23.1544838 20.6913593,23.2410714 20.4444444,23.2410714 L11.5555556,23.2410714 C11.3086407,23.2410714 11.0987663,23.1544838 10.9259259,22.9813058 C10.7530856,22.8081279 10.6666667,22.5978435 10.6666667,22.3504464 L10.6666667,17.0066964 C10.6666667,16.7592994 10.7530856,16.549015 10.9259259,16.3758371 C11.0987663,16.2026591 11.3086407,16.1160714 11.5555556,16.1160714 L11.8518519,16.1160714 L11.8518519,14.3348214 C11.8518519,13.1967949 12.2592552,12.2195911 13.0740741,11.4031808 C13.888893,10.5867705 14.8641919,10.1785714 16,10.1785714 C17.1358081,10.1785714 18.111107,10.5867705 18.9259259,11.4031808 C19.7407448,12.2195911 20.1481481,13.1967949 20.1481481,14.3348214 L20.1481481,16.1160714 L20.4444444,16.1160714 C20.6913593,16.1160714 20.9012337,16.2026591 21.0740741,16.3758371 C21.2469144,16.549015 21.3333333,16.7592994 21.3333333,17.0066964 Z" id="lock---FontAwesome" fill="#FFFFFF"></path>
                    </g>
                </g>
            </g>
        </g>
    </g>
</svg>