<svg xmlns="http://www.w3.org/2000/svg" width="403" height="188" viewBox="0 0 403 188">
    <g fill="none" fill-rule="evenodd">
        <path fill="#FFF" d="M-35 0h1290v6048H-35z"/>
        <path fill="#C8D100" d="M122.53 74.213l7.543 7.586v5.275l-7.521-7.57-.067.068v-.001l-6.47 6.513-.975.98-.005-.004-7.515-7.565v.01l-.731.736L100 87.074v-5.34l7.517-7.54 7.525 7.546 7.489-7.527zm-15.014-.649l-7.498 7.522V75.87l7.498-7.521 7.526 7.546 7.489-7.528 7.563 7.606v5.216l-7.563-7.604-7.49 7.527-7.525-7.547z"/>
        <path fill="#C8D100" d="M115.037 69.5l-.881-.885-6.64-6.679v-5.254l7.52 7.566.979-.985 14.057-14.152v5.254L115.037 69.5zm-7.52-1.782v-5.131l7.525 7.546 15.03-15.087v5.115l-15.03 15.104-7.526-7.547z"/>
        <path fill="#97BE0D" d="M100.024 75.879l7.5-7.523v5.218l-7.5 7.521V75.88zm-.017 11.205v-5.342l7.516-7.539v5.315l-.728.733-6.788 6.833zm30.071-37.963v5.254l-15.032 15.131v-5.252l.975-.982 14.057-14.151zm-15.03 26.153h-.001v-5.132l.001.001 15.03-15.088v5.116l-15.03 15.103zm-.005.629l7.523-7.546v5.217l-7.523 7.545v-5.216zm7.523 3.615l-.003-.004v-.01l-7.516 7.565-.004.006v-5.326l7.523-7.545v5.314z"/>
        <path fill="#C8D100" d="M115.046 70.142v5.131l-7.523-7.546v-5.132l7.523 7.547zm0 5.76v5.217l-7.523-7.545v-5.217l7.523 7.546zm-7.523 3.616v-5.314l7.523 7.545v5.326l-.004-.006-7.516-7.564v.009l-.003.004zm7.52-15.26l.004-.004v5.252l-.004.004-.88-.885-6.64-6.679v-5.255l7.52 7.568zm15.022 11.62v5.217l-7.5-7.52v-5.219l7.5 7.523zm.017 11.206l-6.788-6.833-.728-.733v-5.315l7.516 7.539v5.342z"/>
        <path fill="#003A80" d="M136.715 57.947c1.49-.255 3.575-.445 6.519-.445 2.977 0 5.097.572 6.521 1.714 1.393 1.076 2.279 2.85 2.279 4.944 0 2.09-.668 3.9-1.962 5.071-1.645 1.523-4.085 2.25-6.935 2.25-.631 0-1.201-.03-1.643-.129v7.676h-4.779V57.947zm4.78 9.7v-6.31c.348-.096 1.011-.158 1.962-.158 2.437 0 3.797 1.173 3.797 3.139 0 2.154-1.582 3.457-4.146 3.457-.728 0-1.203-.031-1.614-.128zm24.074 7.64c0 1.458.065 2.885.254 3.74h-4.334l-.287-1.553h-.094c-1.01 1.236-2.594 1.902-4.428 1.902-3.133 0-5.002-2.283-5.002-4.754 0-4.027 3.607-5.931 9.084-5.931v-.187c0-.857-.444-2.033-2.817-2.033-1.583 0-3.26.542-4.273 1.176l-.886-3.106c1.075-.603 3.194-1.4 6.012-1.4 5.16 0 6.771 3.046 6.771 6.723v5.423zm2.148-6.657c0-2.284-.03-3.773-.129-5.106h4.116l.193 2.854h.123c.793-2.28 2.661-3.235 4.181-3.235.443 0 .663.035 1.01.095v4.536a6.931 6.931 0 0 0-1.295-.127c-1.774 0-2.977.949-3.294 2.441a5.846 5.846 0 0 0-.096 1.076v7.863h-4.809V68.63zm22.874 6.657c0 1.458.068 2.885.254 3.74h-4.338l-.284-1.553h-.092c-1.012 1.236-2.597 1.902-4.43 1.902-3.134 0-5-2.283-5-4.754 0-4.027 3.608-5.931 9.08-5.931v-.187c0-.857-.443-2.033-2.817-2.033-1.583 0-3.258.542-4.272 1.176l-.884-3.106c1.077-.603 3.196-1.4 6.011-1.4 5.158 0 6.772 3.046 6.772 6.723v5.423zm2.148-6.815c0-1.937-.064-3.552-.128-4.947h4.18l.219 2.156h.096c.631-1.013 2.182-2.503 4.778-2.503 3.164 0 5.537 2.123 5.537 6.687v9.163h-4.81v-8.59c0-2-.694-3.362-2.436-3.362-1.33 0-2.12.918-2.466 1.806-.13.319-.161.763-.161 1.207v8.939h-4.81V68.472zm29.74 6.815c0 1.458.066 2.885.255 3.74h-4.337l-.286-1.553h-.091c-1.014 1.236-2.595 1.902-4.433 1.902-3.133 0-5-2.283-5-4.754 0-4.027 3.608-5.931 9.082-5.931v-.187c0-.857-.441-2.033-2.814-2.033-1.586 0-3.261.542-4.276 1.176l-.886-3.106c1.075-.603 3.196-1.4 6.015-1.4 5.157 0 6.771 3.046 6.771 6.723v5.423zm-1.486-18.513l-3.858 4.818h-3.296l2.723-4.818h4.43zm3.79 1.173c1.27-.22 3.8-.445 6.234-.445 2.942 0 4.747.285 6.333 1.205 1.487.793 2.528 2.252 2.528 4.218 0 1.867-1.107 3.61-3.512 4.534v.06c2.439.637 4.243 2.505 4.243 5.231 0 1.966-.888 3.49-2.218 4.566-1.548 1.236-4.143 1.934-8.385 1.934-2.377 0-4.145-.16-5.224-.315V57.947zm30.251 17.34c0 1.458.061 2.885.252 3.74h-4.336l-.285-1.553h-.096c-1.011 1.236-2.593 1.902-4.431 1.902-3.133 0-4.998-2.283-4.998-4.754 0-4.027 3.61-5.931 9.08-5.931v-.187c0-.857-.44-2.033-2.814-2.033-1.585 0-3.257.542-4.273 1.176l-.886-3.106c1.076-.603 3.196-1.4 6.013-1.4 5.158 0 6.774 3.046 6.774 6.723v5.423zm2.145-6.815c0-1.937-.063-3.552-.128-4.947h4.177l.222 2.156h.097c.63-1.013 2.179-2.503 4.777-2.503 3.166 0 5.54 2.123 5.54 6.687v9.163h-4.812v-8.59c0-2-.696-3.362-2.437-3.362-1.326 0-2.121.918-2.47 1.806-.124.319-.158.763-.158 1.207v8.939h-4.808V68.472zm28.475 10.143c-.855.412-2.468.73-4.303.73-5.002 0-8.2-3.074-8.2-7.926 0-4.533 3.104-8.242 8.864-8.242 1.267 0 2.655.223 3.67.602l-.76 3.582c-.568-.255-1.422-.475-2.69-.475-2.53 0-4.173 1.805-4.142 4.343 0 2.823 1.898 4.343 4.236 4.343 1.139 0 2.028-.189 2.755-.506l.57 3.55zm15.912-7.51c0 5.67-4.017 8.272-8.161 8.272-4.528 0-8.01-2.98-8.01-7.988 0-5.042 3.29-8.247 8.295-8.247 4.71 0 7.876 3.267 7.876 7.962zm-140.647.596c-2.53 0-4.491.605-4.491 2.442 0 1.24.82 1.843 1.898 1.843 1.168 0 2.184-.795 2.498-1.778.064-.252.095-.538.095-.822v-1.685zm25.02 0c-2.531 0-4.495.605-4.495 2.442 0 1.24.823 1.843 1.9 1.843 1.17 0 2.186-.795 2.502-1.778.063-.252.093-.538.093-.822v-1.685zm31.893 0c-2.538 0-4.498.605-4.498 2.442 0 1.24.825 1.843 1.9 1.843 1.17 0 2.185-.795 2.498-1.778.065-.252.1-.538.1-.822v-1.685zm11.732-5.575h1.581c2.566 0 3.894-1.048 3.894-2.63 0-1.62-1.235-2.475-3.417-2.475-1.075 0-1.677.065-2.058.127v4.978zm0 9.478c.474.064 1.046.064 1.863.064 2.186 0 4.119-.854 4.119-3.109 0-2.122-1.933-2.977-4.336-2.977h-1.646v6.022zm20.817-3.903c-2.534 0-4.494.605-4.494 2.442 0 1.24.82 1.843 1.898 1.843 1.17 0 2.186-.795 2.502-1.778a3.51 3.51 0 0 0 .094-.822v-1.685zm39.981-.439c0 2.66 1.11 4.658 3.166 4.658 1.902 0 3.07-1.869 3.07-4.692 0-2.281-.886-4.63-3.07-4.63-2.277 0-3.166 2.38-3.166 4.664z"/>
    </g>
</svg>
