<svg xmlns="http://www.w3.org/2000/svg" width="246" height="220" viewBox="0 0 246 220">
    <g fill="none" fill-rule="evenodd">
        <path fill="#C8D100" d="M37.54 111.728l4.533 4.551v3.166l-4.52-4.542-.04.04-3.888 3.908-.586.588-.003-.003-4.517-4.539v.006l-.439.442-4.08 4.1v-3.205l4.517-4.524 4.523 4.528 4.5-4.516zm-9.023-.39l-4.506 4.514v-3.13l4.506-4.513 4.523 4.528 4.5-4.517 4.546 4.563v3.13l-4.545-4.562-4.501 4.516-4.523-4.528z"/>
        <path fill="#C8D100" d="M33.037 108.9l-.53-.53-3.99-4.008v-3.153l4.52 4.54.588-.591 8.448-8.492v3.153l-9.036 9.08zm-4.52-1.07v-3.078l4.523 4.528 9.033-9.053v3.07l-9.033 9.062-4.523-4.528z"/>
        <path fill="#97BE0D" d="M24.015 112.727l4.506-4.513v3.13l-4.506 4.513v-3.13zm-.011 6.724v-3.206l4.517-4.523v3.189l-.437.44-4.08 4.1zm18.073-22.778v3.152l-9.034 9.079v-3.151l.586-.59 8.448-8.49zm-9.033 15.692l-.001-.001v-3.079l9.033-9.052v3.07l-9.032 9.062zm-.004.377l4.522-4.528v3.13l-4.522 4.528v-3.13zm4.522 2.169l-.002-.003v-.005l-4.517 4.538-.002.004v-3.196l4.52-4.527v3.189z"/>
        <path fill="#C8D100" d="M33.043 109.285v3.079l-4.522-4.528v-3.079l4.522 4.528zm0 3.457v3.13l-4.522-4.528v-3.13l4.522 4.528zm-4.522 2.169v-3.189l4.522 4.527v3.196l-.003-.004-4.517-4.538v.005l-.002.003zm4.52-9.156l.002-.002v3.15l-.002.003-.53-.53-3.99-4.008v-3.153l4.52 4.54zm9.027 6.972v3.13l-4.506-4.512v-3.131l4.506 4.513zm.011 6.724l-4.08-4.1-.437-.44v-3.19l4.517 4.524v3.206z"/>
        <path fill="#FEFEFE" d="M46.065 101.968c.895-.153 2.148-.267 3.918-.267 1.79 0 3.063.343 3.92 1.028.836.646 1.368 1.711 1.368 2.967 0 1.254-.4 2.34-1.178 3.043-.989.913-2.456 1.35-4.168 1.35-.38 0-.722-.019-.988-.078v4.606h-2.872v-12.649zm2.872 5.82v-3.786c.21-.057.608-.095 1.18-.095 1.464 0 2.282.704 2.282 1.884 0 1.292-.95 2.074-2.492 2.074-.438 0-.723-.019-.97-.077zm14.47 4.584c0 .875.038 1.731.152 2.244h-2.605l-.172-.932h-.057c-.607.742-1.559 1.142-2.661 1.142-1.883 0-3.006-1.37-3.006-2.853 0-2.416 2.168-3.559 5.459-3.559v-.112c0-.514-.267-1.22-1.693-1.22-.951 0-1.96.326-2.568.706l-.532-1.864c.646-.36 1.919-.839 3.613-.839 3.1 0 4.07 1.827 4.07 4.033v3.254zm1.29-3.994c0-1.37-.019-2.264-.077-3.064h2.473l.116 1.713h.074c.477-1.369 1.6-1.941 2.513-1.941.266 0 .398.02.606.057v2.721a4.172 4.172 0 0 0-.778-.076c-1.066 0-1.789.57-1.979 1.465-.037.19-.058.417-.058.645v4.718h-2.89v-6.238zm13.747 3.994c0 .875.04 1.731.153 2.244h-2.608l-.17-.932h-.056c-.608.742-1.56 1.142-2.662 1.142-1.884 0-3.005-1.37-3.005-2.853 0-2.416 2.169-3.559 5.457-3.559v-.112c0-.514-.266-1.22-1.693-1.22-.951 0-1.958.326-2.567.706l-.532-1.864c.648-.36 1.921-.839 3.613-.839 3.1 0 4.07 1.827 4.07 4.033v3.254zm1.29-4.089c0-1.162-.038-2.131-.076-2.968h2.511l.132 1.294h.058c.38-.608 1.312-1.502 2.872-1.502 1.901 0 3.328 1.274 3.328 4.012v5.498h-2.892v-5.154c0-1.2-.416-2.017-1.464-2.017-.798 0-1.274.55-1.482 1.083-.077.192-.096.458-.096.724v5.364h-2.89v-6.334zm17.874 4.09c0 .874.04 1.73.153 2.243h-2.606l-.172-.932h-.055c-.61.742-1.56 1.142-2.664 1.142-1.883 0-3.005-1.37-3.005-2.853 0-2.416 2.168-3.559 5.458-3.559v-.112c0-.514-.265-1.22-1.69-1.22-.954 0-1.96.326-2.57.706l-.533-1.864c.646-.36 1.92-.839 3.615-.839 3.1 0 4.07 1.827 4.07 4.033v3.254zm-.893-11.109l-2.319 2.891h-1.98l1.636-2.89h2.663zm2.277.704c.764-.132 2.284-.267 3.748-.267 1.768 0 2.852.171 3.806.723.893.476 1.519 1.351 1.519 2.53 0 1.121-.665 2.167-2.11 2.721v.036c1.465.382 2.55 1.503 2.55 3.14 0 1.178-.535 2.092-1.334 2.738-.93.742-2.49 1.161-5.04 1.161-1.428 0-2.49-.096-3.139-.19v-12.592zm18.181 10.404c0 .875.037 1.731.152 2.244h-2.606l-.172-.932h-.057c-.608.742-1.559 1.142-2.663 1.142-1.883 0-3.004-1.37-3.004-2.853 0-2.416 2.17-3.559 5.457-3.559v-.112c0-.514-.264-1.22-1.691-1.22-.952 0-1.958.326-2.568.706l-.532-1.864c.646-.36 1.92-.839 3.613-.839 3.1 0 4.071 1.827 4.071 4.033v3.254zm1.29-4.089c0-1.162-.039-2.131-.077-2.968h2.51l.133 1.294h.059c.378-.608 1.309-1.502 2.87-1.502 1.903 0 3.33 1.274 3.33 4.012v5.498h-2.892v-5.154c0-1.2-.418-2.017-1.465-2.017-.797 0-1.275.55-1.484 1.083-.075.192-.095.458-.095.724v5.364h-2.89v-6.334zm17.113 6.086c-.514.247-1.484.437-2.586.437-3.007 0-4.928-1.844-4.928-4.755 0-2.72 1.865-4.945 5.326-4.945.762 0 1.596.134 2.206.361l-.457 2.15c-.341-.153-.854-.285-1.616-.285-1.52 0-2.508 1.082-2.49 2.605 0 1.694 1.141 2.606 2.546 2.606.685 0 1.219-.113 1.656-.303l.343 2.13zm9.562-4.506c0 3.402-2.414 4.963-4.905 4.963-2.72 0-4.814-1.787-4.814-4.793 0-3.025 1.978-4.948 4.986-4.948 2.83 0 4.733 1.96 4.733 4.778zm-84.526.357c-1.521 0-2.7.364-2.7 1.466 0 .744.493 1.106 1.14 1.106.703 0 1.314-.478 1.502-1.067.039-.151.058-.323.058-.493v-1.012zm15.036 0c-1.521 0-2.701.364-2.701 1.466 0 .744.494 1.106 1.142 1.106.702 0 1.313-.478 1.503-1.067.038-.151.056-.323.056-.493v-1.012zm19.167 0c-1.525 0-2.703.364-2.703 1.466 0 .744.496 1.106 1.142 1.106.703 0 1.313-.478 1.501-1.067.04-.151.06-.323.06-.493v-1.012zm7.051-3.345h.95c1.542 0 2.34-.628 2.34-1.578 0-.972-.742-1.484-2.053-1.484-.646 0-1.008.038-1.237.076v2.986zm0 5.687c.285.039.629.039 1.12.039 1.314 0 2.475-.513 2.475-1.866 0-1.273-1.161-1.786-2.605-1.786h-.99v3.613zm12.51-2.342c-1.522 0-2.7.364-2.7 1.466 0 .744.493 1.106 1.14 1.106.704 0 1.315-.478 1.505-1.067.037-.151.056-.323.056-.493v-1.012zm24.029-.263c0 1.596.666 2.795 1.902 2.795 1.144 0 1.845-1.121 1.845-2.815 0-1.37-.532-2.778-1.845-2.778-1.368 0-1.902 1.428-1.902 2.798z"/>
    </g>
</svg>
