<?xml version="1.0" encoding="utf-8"?>
<!-- Generator: Adobe Illustrator 23.0.0, SVG Export Plug-In . SVG Version: 6.00 Build 0)  -->
<svg version="1.1" id="Camada_1" xmlns="http://www.w3.org/2000/svg" xmlns:xlink="http://www.w3.org/1999/xlink" x="0px" y="0px"
	 viewBox="0 0 2013 4148" style="enable-background:new 0 0 2013 4148;" xml:space="preserve">
<style type="text/css">
	.st0{fill-rule:evenodd;clip-rule:evenodd;fill:#FFFFFF;}
	.st1{filter:url(#Adobe_OpacityMaskFilter);}
	.st2{mask:url(#a_1_);}
	.st3{fill-rule:evenodd;clip-rule:evenodd;fill:#73BC00;}
	.st4{fill-rule:evenodd;clip-rule:evenodd;fill:#2593F7;}
	.st5{filter:url(#Adobe_OpacityMaskFilter_1_);}
	.st6{mask:url(#a_2_);}
	.st7{fill:none;}
	.st8{fill:#2593F7;}
	.st9{fill:#CCCCCC;}
	.st10{filter:url(#i);}
	.st11{fill-rule:evenodd;clip-rule:evenodd;}
	.st12{fill-rule:evenodd;clip-rule:evenodd;fill:#FFFFFF;stroke:#73BC00;stroke-width:10.8;}
	.st13{fill-rule:evenodd;clip-rule:evenodd;fill:#999999;}
	.st14{fill-rule:evenodd;clip-rule:evenodd;fill:#333333;}
	.st15{filter:url(#h);}
	.st16{fill-rule:evenodd;clip-rule:evenodd;fill:#FFFFFF;stroke:#2593F7;stroke-width:10.8;}
	.st17{filter:url(#Adobe_OpacityMaskFilter_2_);}
	.st18{mask:url(#f_1_);fill:#FFFFFF;}
	.st19{filter:url(#Adobe_OpacityMaskFilter_3_);}
	.st20{mask:url(#a_3_);}
	.st21{filter:url(#Adobe_OpacityMaskFilter_4_);}
	.st22{mask:url(#a_4_);}
	.st23{fill-rule:evenodd;clip-rule:evenodd;fill:#FFFFFF;fill-opacity:0.32;}
	.st24{fill-rule:evenodd;clip-rule:evenodd;fill:#C8D100;}
	.st25{fill-rule:evenodd;clip-rule:evenodd;fill:#97BE0D;}
	.st26{fill-rule:evenodd;clip-rule:evenodd;fill:#003A80;}
	.st27{filter:url(#Adobe_OpacityMaskFilter_5_);}
	.st28{opacity:0.2994;mask:url(#a_5_);filter:url(#j);enable-background:new    ;}
	.st29{fill-rule:evenodd;clip-rule:evenodd;fill:url(#SVGID_1_);}
</style>
<filter  height="103%" id="j" width="106.1%" x="-3.1%" y="-1.5%">
	<feGaussianBlur  in="SourceGraphic" stdDeviation="20.563081"></feGaussianBlur>
</filter>
<filter  height="107.2%" id="i" width="106.1%" x="-3.1%" y="-2.6%">
	<feOffset  dx="0" dy="10" in="SourceAlpha" result="shadowOffsetOuter1"></feOffset>
	<feGaussianBlur  in="shadowOffsetOuter1" result="shadowBlurOuter1" stdDeviation="10"></feGaussianBlur>
	<feColorMatrix  in="shadowBlurOuter1" values="0 0 0 0 0   0 0 0 0 0   0 0 0 0 0  0 0 0 0.2 0"></feColorMatrix>
</filter>
<filter  height="106.4%" id="h" width="106.3%" x="-3.2%" y="-2.4%">
	<feMorphology  in="SourceAlpha" operator="dilate" radius="5.39999962" result="shadowSpreadOuter1"></feMorphology>
	<feOffset  dx="0" dy="10" in="shadowSpreadOuter1" result="shadowOffsetOuter1"></feOffset>
	<feGaussianBlur  in="shadowOffsetOuter1" result="shadowBlurOuter1" stdDeviation="10"></feGaussianBlur>
	<feComposite  in="shadowBlurOuter1" in2="SourceAlpha" operator="out" result="shadowBlurOuter1"></feComposite>
	<feColorMatrix  in="shadowBlurOuter1" values="0 0 0 0 0   0 0 0 0 0   0 0 0 0 0  0 0 0 0.2 0"></feColorMatrix>
</filter>
<title>screen-contratos</title>
<desc>Created with Sketch.</desc>
<g>
	<g>
		<path class="st0" d="M78.4,0h1855.8c43.3,0,78.4,35.1,78.4,78.4v3990.7c0,43.3-35.1,78.4-78.4,78.4H78.4
			c-43.3,0-78.4-35.1-78.4-78.4V78.4C0,35.1,35.1,0,78.4,0z"/>
	</g>
	<defs>
		<filter id="Adobe_OpacityMaskFilter" filterUnits="userSpaceOnUse" x="0" y="3700" width="2020" height="450">
			<feColorMatrix  type="matrix" values="1 0 0 0 0  0 1 0 0 0  0 0 1 0 0  0 0 0 1 0"/>
		</filter>
	</defs>
	<mask maskUnits="userSpaceOnUse" x="0" y="3700" width="2020" height="450" id="a_1_">
		<g class="st1">
			<path id="e_1_" class="st0" d="M78.4,0h1855.8c43.3,0,78.4,35.1,78.4,78.4v3990.7c0,43.3-35.1,78.4-78.4,78.4H78.4
				c-43.3,0-78.4-35.1-78.4-78.4V78.4C0,35.1,35.1,0,78.4,0z"/>
		</g>
	</mask>
	<g class="st2">
		<g transform="translate(0 3700)">
			<polygon class="st3" points="0,0 2020,0 2020,450 0,450 			"/>
			<path class="st0" d="M150,126.8h-15.1v-8.9H176v8.9h-15.1V165H150L150,126.8L150,126.8z M198.4,165.5c-3.8,0-7.2-0.8-10.3-2.4
				c-3-1.6-5.4-3.8-7.1-6.6s-2.6-6-2.6-9.6s0.9-6.8,2.6-9.6s4.1-5,7.1-6.6c3-1.6,6.5-2.4,10.3-2.4s7.2,0.8,10.2,2.4
				c3,1.6,5.4,3.8,7.1,6.6c1.7,2.8,2.6,6,2.6,9.6s-0.9,6.8-2.6,9.6c-1.7,2.8-4.1,5-7.1,6.6C205.6,164.7,202.2,165.5,198.4,165.5
				L198.4,165.5z M198.4,156.9c2.7,0,4.9-0.9,6.6-2.7s2.6-4.3,2.6-7.3c0-3.1-0.9-5.5-2.6-7.3s-3.9-2.7-6.6-2.7s-4.9,0.9-6.7,2.7
				s-2.6,4.3-2.6,7.3c0,3.1,0.9,5.5,2.6,7.3S195.7,156.9,198.4,156.9z M248.6,163.2c-1,0.8-2.3,1.3-3.8,1.7
				c-1.5,0.4-3.1,0.6-4.7,0.6c-4.3,0-7.6-1.1-10-3.3c-2.4-2.2-3.5-5.4-3.5-9.7v-14.9h-5.6v-8.1h5.6v-8.8H237v8.8h9v8.1h-9v14.7
				c0,1.5,0.4,2.7,1.2,3.5c0.8,0.8,1.9,1.2,3.3,1.2c1.7,0,3.1-0.4,4.2-1.3L248.6,163.2L248.6,163.2z M269.1,128.2
				c5.6,0,9.9,1.3,12.9,4s4.5,6.7,4.5,12.1V165h-9.8v-4.5c-2,3.4-5.7,5.1-11,5.1c-2.8,0-5.2-0.5-7.2-1.4c-2-0.9-3.6-2.2-4.7-3.9
				c-1.1-1.7-1.6-3.5-1.6-5.7c0-3.4,1.3-6,3.8-7.9c2.5-1.9,6.5-2.9,11.8-2.9h8.3c0-2.3-0.7-4.1-2.1-5.3c-1.4-1.2-3.5-1.9-6.3-1.9
				c-1.9,0-3.8,0.3-5.7,0.9c-1.9,0.6-3.4,1.4-4.7,2.5l-3.8-7.3c2-1.4,4.3-2.5,7.1-3.2C263.4,128.6,266.2,128.2,269.1,128.2
				L269.1,128.2z M268.3,158.5c1.8,0,3.4-0.4,4.8-1.2s2.4-2.1,3-3.7v-3.7h-7.2c-4.3,0-6.5,1.4-6.5,4.2c0,1.3,0.5,2.4,1.6,3.2
				C265,158.1,266.5,158.5,268.3,158.5L268.3,158.5z M296.1,115h10.5v50h-10.5C296.1,165,296.1,115,296.1,115z M350,128.2
				c5.6,0,9.9,1.3,12.9,4s4.5,6.7,4.5,12.1V165h-9.8v-4.5c-2,3.4-5.7,5.1-11,5.1c-2.8,0-5.2-0.5-7.2-1.4c-2-0.9-3.6-2.2-4.7-3.9
				c-1.1-1.7-1.6-3.5-1.6-5.7c0-3.4,1.3-6,3.8-7.9s6.5-2.9,11.8-2.9h8.3c0-2.3-0.7-4.1-2.1-5.3c-1.4-1.2-3.5-1.9-6.3-1.9
				c-1.9,0-3.8,0.3-5.7,0.9s-3.4,1.4-4.7,2.5l-3.8-7.3c2-1.4,4.3-2.5,7.1-3.2S347.1,128.2,350,128.2L350,128.2z M349.2,158.5
				c1.8,0,3.4-0.4,4.8-1.2c1.4-0.8,2.4-2.1,3-3.7v-3.7h-7.2c-4.3,0-6.5,1.4-6.5,4.2c0,1.3,0.5,2.4,1.6,3.2
				C345.9,158.1,347.4,158.5,349.2,158.5L349.2,158.5z M406,133.6c1.3-1.8,3-3.1,5.1-4c2.1-0.9,4.6-1.3,7.4-1.3v9.7
				c-1.2-0.1-2-0.1-2.4-0.1c-3,0-5.4,0.8-7.1,2.5c-1.7,1.7-2.6,4.2-2.6,7.6V165H396v-36.2h10L406,133.6L406,133.6z M460.5,147
				c0,0.1-0.1,1.1-0.2,2.8h-27.4c0.5,2.2,1.7,4,3.5,5.3c1.8,1.3,4.1,2,6.9,2c1.9,0,3.6-0.3,5-0.8c1.5-0.6,2.8-1.4,4.1-2.7l5.6,6.1
				c-3.4,3.9-8.4,5.9-14.9,5.9c-4.1,0-7.7-0.8-10.8-2.4c-3.1-1.6-5.6-3.8-7.3-6.6c-1.7-2.8-2.6-6-2.6-9.6c0-3.5,0.8-6.7,2.5-9.6
				c1.7-2.9,4-5.1,6.9-6.7c2.9-1.6,6.2-2.4,9.9-2.4c3.5,0,6.8,0.8,9.6,2.3s5.1,3.7,6.8,6.6C459.7,139.9,460.5,143.2,460.5,147
				L460.5,147z M441.7,136.2c-2.4,0-4.4,0.7-6,2c-1.6,1.3-2.6,3.2-3,5.5h17.8c-0.4-2.3-1.3-4.1-3-5.5S444,136.2,441.7,136.2
				L441.7,136.2z M485,165.5c-3.9,0-7.3-0.8-10.4-2.4c-3.1-1.6-5.5-3.8-7.2-6.6s-2.6-6-2.6-9.6s0.9-6.8,2.6-9.6s4.1-5,7.2-6.6
				c3.1-1.6,6.5-2.4,10.4-2.4c3.8,0,7.1,0.8,10,2.4c2.9,1.6,4.9,3.9,6.2,6.8l-8.1,4.4c-1.9-3.3-4.6-5-8.1-5c-2.7,0-5,0.9-6.8,2.7
				s-2.7,4.2-2.7,7.3c0,3.1,0.9,5.5,2.7,7.3c1.8,1.8,4.1,2.7,6.8,2.7c3.6,0,6.3-1.7,8.1-5l8.1,4.4c-1.3,2.9-3.4,5.1-6.2,6.7
				S488.8,165.5,485,165.5L485,165.5z M542.8,147c0,0.1-0.1,1.1-0.2,2.8h-27.4c0.5,2.2,1.7,4,3.5,5.3c1.8,1.3,4.1,2,6.9,2
				c1.9,0,3.6-0.3,5-0.8s2.8-1.4,4.1-2.7l5.6,6.1c-3.4,3.9-8.4,5.9-14.9,5.9c-4.1,0-7.7-0.8-10.8-2.4c-3.1-1.6-5.6-3.8-7.3-6.6
				c-1.7-2.8-2.6-6-2.6-9.6c0-3.5,0.8-6.7,2.5-9.6c1.7-2.9,4-5.1,6.9-6.7s6.2-2.4,9.9-2.4c3.5,0,6.8,0.8,9.6,2.3s5.1,3.7,6.8,6.6
				C542,139.9,542.8,143.2,542.8,147L542.8,147z M524,136.2c-2.4,0-4.4,0.7-6,2c-1.6,1.3-2.6,3.2-3,5.5h17.8c-0.4-2.3-1.3-4.1-3-5.5
				S526.3,136.2,524,136.2L524,136.2z M571.2,128.2c3.4,0,6.4,0.8,9.2,2.3c2.8,1.5,4.9,3.7,6.5,6.5c1.6,2.8,2.4,6.1,2.4,9.8
				s-0.8,7-2.4,9.8c-1.6,2.8-3.7,5-6.5,6.5c-2.8,1.5-5.8,2.3-9.2,2.3c-5,0-8.8-1.6-11.4-4.7v4.2h-10v-50h10.5v17.6
				C562.9,129.7,566.6,128.2,571.2,128.2L571.2,128.2z M569.4,156.9c2.7,0,4.9-0.9,6.6-2.7s2.6-4.3,2.6-7.3c0-3.1-0.9-5.5-2.6-7.3
				s-3.9-2.7-6.6-2.7s-4.9,0.9-6.6,2.7s-2.6,4.3-2.6,7.3c0,3.1,0.9,5.5,2.6,7.3S566.7,156.9,569.4,156.9z M631.7,147
				c0,0.1-0.1,1.1-0.2,2.8h-27.4c0.5,2.2,1.7,4,3.5,5.3c1.8,1.3,4.1,2,6.9,2c1.9,0,3.6-0.3,5-0.8c1.5-0.6,2.8-1.4,4.1-2.7l5.6,6.1
				c-3.4,3.9-8.4,5.9-14.9,5.9c-4.1,0-7.7-0.8-10.8-2.4c-3.1-1.6-5.6-3.8-7.3-6.6s-2.6-6-2.6-9.6c0-3.5,0.8-6.7,2.5-9.6
				c1.7-2.9,4-5.1,6.9-6.7s6.2-2.4,9.9-2.4c3.5,0,6.8,0.8,9.6,2.3s5.1,3.7,6.8,6.6C630.9,139.9,631.7,143.2,631.7,147L631.7,147z
				 M612.9,136.2c-2.4,0-4.4,0.7-6,2c-1.6,1.3-2.6,3.2-3,5.5h17.8c-0.4-2.3-1.3-4.1-3-5.5S615.3,136.2,612.9,136.2L612.9,136.2z
				 M648.8,133.6c1.3-1.8,3-3.1,5.1-4c2.1-0.9,4.6-1.3,7.4-1.3v9.7c-1.2-0.1-2-0.1-2.4-0.1c-3,0-5.4,0.8-7.1,2.5
				c-1.7,1.7-2.6,4.2-2.6,7.6V165h-10.5v-36.2h10L648.8,133.6L648.8,133.6z"/>
			<path class="st0" d="M188.1,305.6l-13.6-19.7h-15v19.7h-16.4v-70.7h30.6c6.3,0,11.7,1,16.3,3.1c4.6,2.1,8.2,5.1,10.7,8.9
				c2.5,3.8,3.7,8.4,3.7,13.6s-1.3,9.8-3.8,13.6c-2.5,3.8-6.1,6.7-10.8,8.7l15.9,22.7L188.1,305.6L188.1,305.6z M187.8,260.5
				c0-4-1.3-7-3.8-9.1s-6.3-3.2-11.2-3.2h-13.3v24.6h13.3c4.9,0,8.7-1.1,11.2-3.2S187.8,264.4,187.8,260.5z M270.5,284.9
				c0,5.5-2,10.3-6.1,14.2s-9.9,6.4-17.5,7.3v11.3h-10.1v-11c-5-0.3-9.7-1.1-14.2-2.6s-8.1-3.3-10.9-5.5l5.6-12.3
				c2.6,1.9,5.6,3.5,9,4.7s7,2.1,10.6,2.4v-16.9c-4.8-1.1-8.8-2.4-12.1-3.8c-3.3-1.4-6.1-3.5-8.3-6.2s-3.3-6.3-3.3-10.9
				c0-5.6,2-10.4,6.1-14.4c4.1-4,9.9-6.4,17.6-7.3v-11.2H247v11c8.3,0.7,15.1,2.7,20.5,6.2l-5,12.4c-5-2.9-10.2-4.6-15.5-5.3v17.2
				c4.7,1.1,8.7,2.3,12,3.7c3.3,1.4,6,3.4,8.2,6.2C269.4,276.8,270.5,280.4,270.5,284.9L270.5,284.9z M229.4,254.9
				c0,1.7,0.6,3.1,1.9,4.1c1.3,1.1,3.1,2,5.6,2.7v-14.3c-2.6,0.6-4.4,1.6-5.7,2.9C230,251.6,229.4,253.1,229.4,254.9z M247,293
				c2.4-0.5,4.2-1.4,5.5-2.6c1.2-1.2,1.8-2.7,1.8-4.3s-0.6-3.1-1.9-4.1c-1.2-1.1-3-2-5.4-2.8L247,293L247,293z M358.7,292.2v13.3
				h-53.4V295l27.3-25.8c2.9-2.8,4.8-5.1,5.9-7.1c1-2,1.5-4,1.5-5.9c0-2.8-1-5-2.9-6.5s-4.7-2.3-8.4-2.3c-3.1,0-5.9,0.6-8.4,1.8
				c-2.5,1.2-4.6,2.9-6.3,5.3l-11.9-7.7c2.8-4.1,6.6-7.3,11.4-9.6s10.4-3.5,16.7-3.5c5.3,0,9.8,0.9,13.8,2.6c3.9,1.7,7,4.1,9.2,7.3
				c2.2,3.1,3.3,6.8,3.3,11.1c0,3.8-0.8,7.4-2.4,10.8c-1.6,3.4-4.7,7.2-9.4,11.5l-16.3,15.4L358.7,292.2L358.7,292.2z M374.8,306.4
				c-2.8,0-5.1-0.9-7-2.8c-1.9-1.9-2.8-4.2-2.8-7.1c0-2.9,0.9-5.2,2.8-7c1.9-1.8,4.2-2.7,7-2.7c2.8,0,5.1,0.9,7,2.7
				c1.9,1.8,2.8,4.1,2.8,7c0,2.8-0.9,5.2-2.8,7.1C379.8,305.4,377.5,306.4,374.8,306.4z M422.2,306.8c-5.9,0-11.1-1.4-15.7-4.3
				c-4.6-2.9-8.2-7.1-10.8-12.6c-2.6-5.5-3.9-12-3.9-19.6c0-7.6,1.3-14.2,3.9-19.6c2.6-5.5,6.2-9.7,10.8-12.6
				c4.6-2.9,9.8-4.3,15.7-4.3s11.1,1.4,15.7,4.3c4.6,2.9,8.2,7.1,10.8,12.6c2.6,5.5,3.9,12,3.9,19.6c0,7.6-1.3,14.2-3.9,19.6
				c-2.6,5.5-6.2,9.7-10.8,12.6C433.3,305.3,428.1,306.8,422.2,306.8z M422.2,292.9c4.3,0,7.7-1.9,10.1-5.6
				c2.5-3.7,3.7-9.4,3.7-17.2s-1.2-13.5-3.7-17.2c-2.5-3.7-5.8-5.6-10.1-5.6c-4.2,0-7.6,1.9-10,5.6c-2.5,3.7-3.7,9.4-3.7,17.2
				s1.2,13.5,3.7,17.2C414.6,291.1,418,292.9,422.2,292.9z M490.8,306.8c-5.9,0-11.1-1.4-15.7-4.3c-4.6-2.9-8.2-7.1-10.8-12.6
				c-2.6-5.5-3.9-12-3.9-19.6c0-7.6,1.3-14.2,3.9-19.6c2.6-5.5,6.2-9.7,10.8-12.6c4.6-2.9,9.8-4.3,15.7-4.3s11.1,1.4,15.7,4.3
				c4.6,2.9,8.2,7.1,10.8,12.6c2.6,5.5,3.9,12,3.9,19.6c0,7.6-1.3,14.2-3.9,19.6c-2.6,5.5-6.2,9.7-10.8,12.6
				C501.9,305.3,496.7,306.8,490.8,306.8z M490.8,292.9c4.3,0,7.7-1.9,10.1-5.6c2.5-3.7,3.7-9.4,3.7-17.2s-1.2-13.5-3.7-17.2
				c-2.5-3.7-5.8-5.6-10.1-5.6c-4.2,0-7.6,1.9-10,5.6c-2.5,3.7-3.7,9.4-3.7,17.2s1.2,13.5,3.7,17.2
				C483.2,291.1,486.6,292.9,490.8,292.9z M559.4,306.8c-5.9,0-11.1-1.4-15.7-4.3c-4.6-2.9-8.2-7.1-10.8-12.6
				c-2.6-5.5-3.9-12-3.9-19.6c0-7.6,1.3-14.2,3.9-19.6c2.6-5.5,6.2-9.7,10.8-12.6c4.6-2.9,9.8-4.3,15.7-4.3c5.9,0,11.1,1.4,15.7,4.3
				c4.6,2.9,8.2,7.1,10.8,12.6c2.6,5.5,3.9,12,3.9,19.6c0,7.6-1.3,14.2-3.9,19.6c-2.6,5.5-6.2,9.7-10.8,12.6
				C570.5,305.3,565.2,306.8,559.4,306.8z M559.4,292.9c4.3,0,7.7-1.9,10.2-5.6c2.5-3.7,3.7-9.4,3.7-17.2s-1.2-13.5-3.7-17.2
				c-2.5-3.7-5.8-5.6-10.2-5.6c-4.2,0-7.6,1.9-10,5.6c-2.5,3.7-3.7,9.4-3.7,17.2s1.2,13.5,3.7,17.2
				C551.8,291.1,555.1,292.9,559.4,292.9z M607.1,286.8c2.8,0,5.2,0.9,7,2.7c1.8,1.8,2.7,4.1,2.7,7c0,1.3-0.2,2.7-0.5,4
				s-1.1,3.4-2.2,6.1l-5.8,14.5h-10l4.4-16.1c-1.7-0.7-3-1.8-4-3.3s-1.5-3.3-1.5-5.3c0-2.9,0.9-5.2,2.8-7S604.2,286.8,607.1,286.8
				L607.1,286.8z M654.4,306.8c-5.9,0-11.1-1.4-15.7-4.3c-4.6-2.9-8.2-7.1-10.8-12.6c-2.6-5.5-3.9-12-3.9-19.6
				c0-7.6,1.3-14.2,3.9-19.6c2.6-5.5,6.2-9.7,10.8-12.6c4.6-2.9,9.8-4.3,15.7-4.3c5.9,0,11.1,1.4,15.7,4.3
				c4.6,2.9,8.2,7.1,10.8,12.6c2.6,5.5,3.9,12,3.9,19.6c0,7.6-1.3,14.2-3.9,19.6c-2.6,5.5-6.2,9.7-10.8,12.6
				C665.5,305.3,660.3,306.8,654.4,306.8z M654.4,292.9c4.3,0,7.7-1.9,10.2-5.6c2.5-3.7,3.7-9.4,3.7-17.2s-1.2-13.5-3.7-17.2
				c-2.5-3.7-5.8-5.6-10.2-5.6c-4.2,0-7.6,1.9-10,5.6c-2.5,3.7-3.7,9.4-3.7,17.2s1.2,13.5,3.7,17.2
				C646.8,291.1,650.2,292.9,654.4,292.9z M723,306.8c-5.9,0-11.1-1.4-15.7-4.3c-4.6-2.9-8.2-7.1-10.8-12.6
				c-2.6-5.5-3.9-12-3.9-19.6c0-7.6,1.3-14.2,3.9-19.6c2.6-5.5,6.2-9.7,10.8-12.6c4.6-2.9,9.8-4.3,15.7-4.3c5.9,0,11.1,1.4,15.7,4.3
				c4.6,2.9,8.2,7.1,10.8,12.6c2.6,5.5,3.9,12,3.9,19.6c0,7.6-1.3,14.2-3.9,19.6c-2.6,5.5-6.2,9.7-10.8,12.6
				C734.1,305.3,728.9,306.8,723,306.8z M723,292.9c4.3,0,7.7-1.9,10.2-5.6c2.5-3.7,3.7-9.4,3.7-17.2s-1.2-13.5-3.7-17.2
				c-2.5-3.7-5.8-5.6-10.2-5.6c-4.2,0-7.6,1.9-10,5.6c-2.5,3.7-3.7,9.4-3.7,17.2s1.2,13.5,3.7,17.2
				C715.4,291.1,718.8,292.9,723,292.9z"/>
			<g transform="translate(1077.3 90)">
				<path class="st0" d="M135,0h538c74.6,0,135,60.4,135,135l0,0c0,74.6-60.4,135-135,135H135C60.4,270,0,209.6,0,135l0,0
					C0,60.4,60.4,0,135,0z"/>
				<path class="st4" d="M185.9,103.2c5.6,0,10.4,0.9,14.5,2.8c4.1,1.9,7.3,4.5,9.5,7.9c2.2,3.4,3.3,7.5,3.3,12.1
					c0,4.6-1.1,8.6-3.3,12.1c-2.2,3.4-5.4,6.1-9.5,7.9c-4.1,1.8-8.9,2.7-14.5,2.7h-12.7V166h-14.5v-62.8L185.9,103.2L185.9,103.2z
					 M185.1,136.8c4.4,0,7.7-0.9,10-2.8s3.4-4.6,3.4-8c0-3.5-1.1-6.2-3.4-8.1s-5.6-2.8-10-2.8h-11.9v21.8L185.1,136.8L185.1,136.8z
					 M236.8,124.1c1.7-2.3,3.9-4.1,6.8-5.3s6.1-1.8,9.8-1.8v12.9c-1.6-0.1-2.6-0.2-3.1-0.2c-4,0-7.2,1.1-9.4,3.4s-3.4,5.6-3.4,10.1
					V166h-14v-48.3h13.4L236.8,124.1L236.8,124.1z M285.1,166.7c-5.1,0-9.7-1.1-13.7-3.2s-7.2-5.1-9.5-8.8
					c-2.3-3.8-3.4-8.1-3.4-12.8s1.1-9.1,3.4-12.8c2.3-3.8,5.4-6.7,9.5-8.8c4-2.1,8.6-3.2,13.7-3.2s9.6,1.1,13.6,3.2
					c4,2.1,7.2,5.1,9.4,8.8c2.3,3.8,3.4,8.1,3.4,12.8s-1.1,9.1-3.4,12.8s-5.4,6.7-9.4,8.8C294.8,165.7,290.2,166.7,285.1,166.7z
					 M285.1,155.2c3.6,0,6.5-1.2,8.8-3.6c2.3-2.4,3.5-5.7,3.5-9.7s-1.2-7.3-3.5-9.7c-2.3-2.4-5.3-3.6-8.8-3.6s-6.6,1.2-8.9,3.6
					s-3.5,5.7-3.5,9.7s1.2,7.3,3.5,9.7S281.5,155.2,285.1,155.2z M337.2,166.7c-4,0-7.9-0.5-11.8-1.5c-3.8-1-6.9-2.2-9.2-3.7
					l4.7-10.1c2.2,1.4,4.8,2.5,7.8,3.4c3.1,0.9,6,1.3,9,1.3c5.9,0,8.9-1.5,8.9-4.4c0-1.4-0.8-2.4-2.4-3c-1.6-0.6-4.1-1.1-7.5-1.5
					c-4-0.6-7.2-1.3-9.8-2.1c-2.6-0.8-4.8-2.2-6.7-4.1s-2.8-4.8-2.8-8.4c0-3.1,0.9-5.8,2.6-8.1c1.8-2.4,4.3-4.2,7.7-5.5
					c3.4-1.3,7.4-2,12-2c3.4,0,6.8,0.4,10.2,1.1c3.4,0.7,6.2,1.8,8.4,3.1l-4.7,10c-4.2-2.4-8.9-3.6-13.9-3.6c-3,0-5.2,0.4-6.7,1.3
					c-1.5,0.8-2.2,1.9-2.2,3.2c0,1.5,0.8,2.5,2.4,3.1c1.6,0.6,4.2,1.2,7.7,1.7c4,0.7,7.2,1.4,9.7,2.1s4.7,2.1,6.6,4.1
					s2.8,4.7,2.8,8.3c0,3-0.9,5.7-2.7,8c-1.8,2.3-4.4,4.1-7.9,5.4S341.9,166.7,337.2,166.7L337.2,166.7z M384.9,166.7
					c-4,0-7.9-0.5-11.8-1.5c-3.8-1-6.9-2.2-9.2-3.7l4.7-10.1c2.2,1.4,4.8,2.5,7.8,3.4c3.1,0.9,6,1.3,9,1.3c5.9,0,8.9-1.5,8.9-4.4
					c0-1.4-0.8-2.4-2.4-3c-1.6-0.6-4.1-1.1-7.5-1.5c-4-0.6-7.2-1.3-9.8-2.1c-2.6-0.8-4.8-2.2-6.7-4.1s-2.8-4.8-2.8-8.4
					c0-3.1,0.9-5.8,2.6-8.1c1.8-2.4,4.3-4.2,7.7-5.5c3.4-1.3,7.4-2,12-2c3.4,0,6.8,0.4,10.2,1.1c3.4,0.7,6.2,1.8,8.4,3.1l-4.7,10
					c-4.2-2.4-8.9-3.6-13.9-3.6c-3,0-5.2,0.4-6.7,1.3c-1.5,0.8-2.2,1.9-2.2,3.2c0,1.5,0.8,2.5,2.4,3.1c1.6,0.6,4.2,1.2,7.7,1.7
					c4,0.7,7.2,1.4,9.7,2.1s4.7,2.1,6.6,4.1s2.8,4.7,2.8,8.3c0,3-0.9,5.7-2.7,8c-1.8,2.3-4.4,4.1-7.9,5.4S389.6,166.7,384.9,166.7
					L384.9,166.7z M463.6,142c0,0.2-0.1,1.4-0.3,3.8h-36.5c0.7,3,2.2,5.4,4.7,7.1s5.5,2.6,9.2,2.6c2.5,0,4.7-0.4,6.7-1.1
					s3.8-1.9,5.4-3.5l7.5,8.1c-4.5,5.2-11.2,7.8-19.9,7.8c-5.4,0-10.3-1.1-14.5-3.2s-7.4-5.1-9.7-8.8s-3.4-8.1-3.4-12.8
					c0-4.7,1.1-9,3.4-12.8c2.2-3.8,5.3-6.8,9.2-8.9s8.3-3.2,13.2-3.2c4.7,0,9,1,12.8,3.1s6.8,5,9,8.8S463.6,137,463.6,142L463.6,142
					z M438.6,127.6c-3.2,0-5.8,0.9-8,2.7c-2.2,1.8-3.5,4.2-4,7.4h23.8c-0.5-3.1-1.8-5.5-4-7.3S441.7,127.6,438.6,127.6L438.6,127.6z
					 M522.8,117.7v40.2c0,8.9-2.3,15.4-6.9,19.8s-11.3,6.5-20.2,6.5c-4.7,0-9.1-0.6-13.3-1.7s-7.7-2.8-10.4-4.9l5.6-10.1
					c2,1.7,4.6,3,7.7,4c3.1,1,6.2,1.5,9.3,1.5c4.8,0,8.4-1.1,10.7-3.3s3.5-5.5,3.5-9.9v-2.1c-3.7,4-8.7,6-15.3,6
					c-4.4,0-8.5-1-12.2-2.9c-3.7-1.9-6.6-4.7-8.8-8.2c-2.2-3.5-3.2-7.6-3.2-12.2c0-4.6,1.1-8.7,3.2-12.2c2.2-3.5,5.1-6.3,8.8-8.2
					s7.7-2.9,12.2-2.9c7,0,12.3,2.3,16,6.9v-6.2L522.8,117.7L522.8,117.7z M496.3,152.2c3.7,0,6.7-1.1,9.1-3.3
					c2.4-2.2,3.5-5,3.5-8.6c0-3.5-1.2-6.4-3.5-8.6c-2.4-2.2-5.4-3.3-9.1-3.3s-6.8,1.1-9.2,3.3c-2.4,2.2-3.6,5-3.6,8.6
					c0,3.5,1.2,6.4,3.6,8.6S492.6,152.2,496.3,152.2z M584.5,117.7V166h-13.3v-5.7c-1.9,2.1-4.1,3.7-6.6,4.8
					c-2.6,1.1-5.4,1.7-8.3,1.7c-6.3,0-11.4-1.8-15.1-5.5c-3.7-3.7-5.6-9.1-5.6-16.3v-27.3h14v25.2c0,7.8,3.3,11.7,9.8,11.7
					c3.4,0,6-1.1,8.1-3.3c2-2.2,3.1-5.4,3.1-9.7v-23.9L584.5,117.7L584.5,117.7z M597.5,117.7h14V166h-14
					C597.5,166,597.5,117.7,597.5,117.7z M604.5,111c-2.6,0-4.7-0.7-6.3-2.2s-2.4-3.4-2.4-5.6s0.8-4.1,2.4-5.6s3.7-2.2,6.3-2.2
					s4.7,0.7,6.3,2.2c1.6,1.4,2.4,3.2,2.4,5.4c0,2.3-0.8,4.3-2.4,5.8S607,111,604.5,111L604.5,111z M637.9,124.1
					c1.7-2.3,3.9-4.1,6.8-5.3c2.8-1.2,6.1-1.8,9.8-1.8v12.9c-1.6-0.1-2.6-0.2-3.1-0.2c-4,0-7.2,1.1-9.4,3.4s-3.4,5.6-3.4,10.1V166
					h-14v-48.3h13.4L637.9,124.1L637.9,124.1z"/>
			</g>
		</g>
	</g>
	<defs>
		<filter id="Adobe_OpacityMaskFilter_1_" filterUnits="userSpaceOnUse" x="99.1" y="1269.5" width="2585.5" height="1631">
			<feColorMatrix  type="matrix" values="1 0 0 0 0  0 1 0 0 0  0 0 1 0 0  0 0 0 1 0"/>
		</filter>
	</defs>
	<mask maskUnits="userSpaceOnUse" x="99.1" y="1269.5" width="2585.5" height="1631" id="a_2_">
		<g class="st5">
			<path id="e_2_" class="st0" d="M78.4,0h1855.8c43.3,0,78.4,35.1,78.4,78.4v3990.7c0,43.3-35.1,78.4-78.4,78.4H78.4
				c-43.3,0-78.4-35.1-78.4-78.4V78.4C0,35.1,35.1,0,78.4,0z"/>
		</g>
	</mask>
	<g class="st6">
		<g transform="translate(140 1300)">
			<g transform="translate(1557.9 1466)">
				<g transform="translate(0 -.49846)">
					<rect x="0" y="0" class="st7" width="129.6" height="129.6"/>
					<path class="st8" d="M111.2,70.2H5.9c-3.3,0-5.9-2.4-5.9-5.4s2.6-5.4,5.9-5.4h105.3L88,36.2c-2.1-2.1-2.1-5.5,0-7.6
						c2.1-2.1,5.5-2.1,7.6,0L128,61c2.1,2.1,2.1,5.5,0,7.6L95.6,101c-2.1,2.1-5.5,2.1-7.6,0c-2.1-2.1-2.1-5.5,0-7.6L111.2,70.2
						L111.2,70.2z"/>
				</g>
			</g>
			<g transform="translate(449.48 1474.3)">
				<g transform="translate(.58621 .91466)">
					<path class="st4" d="M153.7,35.1h27.5c6.6,0,12.4,1.3,17.4,3.8c5,2.5,9,6,11.8,10.6s4.2,9.8,4.2,15.9s-1.4,11.3-4.2,15.9
						c-2.8,4.6-6.7,8.1-11.8,10.6c-5,2.5-10.8,3.8-17.4,3.8h-27.5V35.1L153.7,35.1z M180.5,84.1c6,0,10.9-1.7,14.5-5.1
						s5.4-7.9,5.4-13.7S198.6,55,195,51.7c-3.6-3.4-8.4-5.1-14.5-5.1h-12.8v37.5L180.5,84.1L180.5,84.1z M269.6,72.5
						c0,0.2-0.1,1.4-0.3,3.6h-35.2c0.6,2.9,2.1,5.2,4.5,6.8s5.3,2.5,8.8,2.5c2.4,0,4.6-0.4,6.4-1.1s3.6-1.9,5.2-3.4l7.2,7.8
						c-4.4,5-10.8,7.5-19.2,7.5c-5.2,0-9.9-1-13.9-3.1s-7.1-4.9-9.3-8.5s-3.3-7.7-3.3-12.4c0-4.6,1.1-8.7,3.2-12.3s5.1-6.5,8.9-8.6
						s8-3.1,12.7-3.1c4.6,0,8.7,1,12.4,2.9c3.7,2,6.6,4.8,8.7,8.4S269.6,67.7,269.6,72.5L269.6,72.5z M245.5,58.6
						c-3.1,0-5.6,0.9-7.7,2.6s-3.3,4.1-3.8,7.1h22.9c-0.5-2.9-1.7-5.3-3.8-7C251.1,59.5,248.5,58.6,245.5,58.6z M294.3,96.3
						c-3.9,0-7.6-0.5-11.3-1.4c-3.7-1-6.6-2.1-8.8-3.6l4.5-9.7c2.1,1.3,4.6,2.4,7.5,3.2c2.9,0.8,5.8,1.3,8.6,1.3
						c5.7,0,8.6-1.4,8.6-4.2c0-1.3-0.8-2.3-2.3-2.9s-3.9-1.1-7.2-1.5c-3.8-0.6-6.9-1.2-9.4-2c-2.5-0.7-4.6-2.1-6.4-4
						s-2.7-4.6-2.7-8.1c0-2.9,0.8-5.5,2.5-7.8s4.2-4,7.4-5.3s7.1-1.9,11.5-1.9c3.3,0,6.6,0.4,9.8,1.1s5.9,1.7,8.1,3l-4.5,9.6
						c-4.1-2.3-8.6-3.5-13.4-3.5c-2.9,0-5,0.4-6.5,1.2s-2.2,1.8-2.2,3.1c0,1.4,0.8,2.4,2.3,3s4,1.1,7.4,1.6c3.8,0.6,6.9,1.3,9.3,2
						c2.4,0.7,4.5,2,6.3,3.9c1.8,1.9,2.7,4.6,2.7,7.9c0,2.9-0.9,5.4-2.6,7.7c-1.7,2.2-4.2,4-7.6,5.2S298.8,96.3,294.3,96.3
						L294.3,96.3z M384,48.4c5.8,0,10.4,1.7,13.9,5.1c3.4,3.4,5.1,8.6,5.1,15.4v26.6h-13.5V71.1c0-3.7-0.8-6.4-2.3-8.3
						c-1.5-1.8-3.7-2.7-6.5-2.7c-3.2,0-5.7,1-7.5,3.1c-1.8,2-2.8,5.1-2.8,9.1v23.3H357V71.1c0-7.3-2.9-11-8.8-11
						c-3.1,0-5.6,1-7.4,3.1s-2.8,5.1-2.8,9.1v23.3h-13.5V49.1h12.9v5.4c1.7-2,3.8-3.5,6.4-4.5s5.3-1.6,8.3-1.6
						c3.3,0,6.2,0.6,8.9,1.9c2.6,1.3,4.8,3.2,6.4,5.7c1.9-2.4,4.3-4.3,7.2-5.6C377.4,49.1,380.6,48.4,384,48.4L384,48.4z
						 M433.9,48.4c7.2,0,12.7,1.7,16.6,5.1s5.8,8.6,5.8,15.5v26.5h-12.6v-5.8c-2.5,4.3-7.3,6.5-14.2,6.5c-3.6,0-6.7-0.6-9.3-1.8
						c-2.6-1.2-4.6-2.9-6-5s-2.1-4.6-2.1-7.3c0-4.3,1.6-7.7,4.9-10.2s8.3-3.7,15.1-3.7h10.7c0-2.9-0.9-5.2-2.7-6.8
						c-1.8-1.6-4.5-2.4-8-2.4c-2.5,0-4.9,0.4-7.3,1.2s-4.4,1.8-6.1,3.2l-4.8-9.4c2.5-1.8,5.6-3.2,9.1-4.1
						C426.5,48.9,430.2,48.4,433.9,48.4L433.9,48.4z M432.9,87.2c2.3,0,4.3-0.5,6.1-1.6c1.8-1.1,3.1-2.6,3.8-4.7v-4.8h-9.2
						c-5.5,0-8.3,1.8-8.3,5.4c0,1.7,0.7,3.1,2,4.1S430.5,87.2,432.9,87.2z M481.3,55.3c1.6-2.2,3.8-3.9,6.5-5.1s5.9-1.7,9.5-1.7
						v12.4c-1.5-0.1-2.5-0.2-3-0.2c-3.9,0-6.9,1.1-9.1,3.2c-2.2,2.2-3.3,5.4-3.3,9.7v21.9h-13.5V49.1h12.9L481.3,55.3L481.3,55.3z
						 M528.2,96.3c-5,0-9.4-1-13.3-3.1c-3.9-2-7-4.9-9.2-8.5s-3.3-7.7-3.3-12.4s1.1-8.7,3.3-12.4c2.2-3.6,5.3-6.5,9.2-8.5
						s8.4-3.1,13.3-3.1c4.9,0,9.2,1,12.8,3.1c3.7,2,6.3,5,8,8.8l-10.5,5.6c-2.4-4.3-5.9-6.4-10.5-6.4c-3.5,0-6.4,1.2-8.7,3.5
						c-2.3,2.3-3.5,5.4-3.5,9.4s1.2,7.1,3.5,9.4s5.2,3.5,8.7,3.5c4.6,0,8.1-2.1,10.5-6.4l10.5,5.7c-1.7,3.7-4.3,6.6-8,8.6
						S533.1,96.3,528.2,96.3L528.2,96.3z M575.5,48.4c7.2,0,12.7,1.7,16.6,5.1s5.8,8.6,5.8,15.5v26.5h-12.6v-5.8
						c-2.5,4.3-7.3,6.5-14.2,6.5c-3.6,0-6.7-0.6-9.3-1.8c-2.6-1.2-4.6-2.9-6-5c-1.4-2.1-2.1-4.6-2.1-7.3c0-4.3,1.6-7.7,4.9-10.2
						s8.3-3.7,15.1-3.7h10.7c0-2.9-0.9-5.2-2.7-6.8c-1.8-1.6-4.5-2.4-8-2.4c-2.5,0-4.9,0.4-7.3,1.2s-4.4,1.8-6.1,3.2l-4.8-9.4
						c2.5-1.8,5.6-3.2,9.1-4.1C568.1,48.9,571.8,48.4,575.5,48.4L575.5,48.4z M574.5,87.2c2.3,0,4.3-0.5,6.1-1.6
						c1.8-1.1,3.1-2.6,3.8-4.7v-4.8h-9.2c-5.5,0-8.3,1.8-8.3,5.4c0,1.7,0.7,3.1,2,4.1S572.1,87.2,574.5,87.2z M622.9,55.3
						c1.6-2.2,3.8-3.9,6.5-5.1s5.9-1.7,9.5-1.7v12.4c-1.5-0.1-2.5-0.2-3-0.2c-3.9,0-6.9,1.1-9.1,3.2c-2.2,2.2-3.3,5.4-3.3,9.7v21.9
						h-13.5V49.1h12.9L622.9,55.3L622.9,55.3z"/>
				</g>
			</g>
			<g transform="translate(0 1471.4)">
				<g transform="translate(0 -.49846)">
					<rect y="0" class="st7" width="129.6" height="129.6"/>
					<path class="st9" d="M18.4,59.4h105.3c3.3,0,5.9,2.4,5.9,5.4s-2.6,5.4-5.9,5.4H18.4l23.2,23.2c2.1,2.1,2.1,5.5,0,7.6
						c-2.1,2.1-5.5,2.1-7.6,0L1.6,68.6c-2.1-2.1-2.1-5.5,0-7.6L34,28.6c2.1-2.1,5.5-2.1,7.6,0c2.1,2.1,2.1,5.5,0,7.6L18.4,59.4
						L18.4,59.4z"/>
				</g>
			</g>
			<g transform="translate(1363.2 301.82)">
				<g class="st10">
					<path id="d_1_" class="st11" d="M21.6,0h1103.6c11.9,0,21.6,9.7,21.6,21.6v926.9c0,11.9-9.7,21.6-21.6,21.6H21.6
						C9.7,970.1,0,960.5,0,948.5V21.6C0,9.7,9.7,0,21.6,0L21.6,0z"/>
				</g>
				<g>
					<path class="st0" d="M21.6,0h1103.6c11.9,0,21.6,9.7,21.6,21.6v926.9c0,11.9-9.7,21.6-21.6,21.6H21.6
						C9.7,970.1,0,960.5,0,948.5V21.6C0,9.7,9.7,0,21.6,0L21.6,0z"/>
				</g>
				<g transform="translate(129.83 129.35)">
					<path class="st12" d="M27,5.4h119.1c11.9,0,21.6,9.7,21.6,21.6v118.5c0,11.9-9.7,21.6-21.6,21.6H27c-11.9,0-21.6-9.7-21.6-21.6
						V27C5.4,15.1,15.1,5.4,27,5.4z"/>
				</g>
				<path class="st13" d="M164.6,768.6v5.6H132v-4.4l18.5-17.8c2.2-2.2,3.8-4,4.5-5.6c0.8-1.6,1.2-3.2,1.2-4.8
					c0-2.4-0.8-4.2-2.5-5.5c-1.7-1.3-4.1-2-7.2-2c-5,0-8.9,1.6-11.6,4.9l-4.4-3.8c1.8-2.2,4.1-3.8,7-5.1s6.1-1.8,9.6-1.8
					c4.8,0,8.5,1.1,11.3,3.4s4.2,5.3,4.2,9.2c0,2.4-0.5,4.7-1.6,6.9s-3,4.6-5.9,7.4l-13.9,13.3L164.6,768.6L164.6,768.6z
					 M209.4,763.1h-8.6v11.1h-6.3v-11.1h-25.2v-4.5l23.2-29.7h7l-22.2,28.6h17.4v-9.8h6.1v9.8h8.6V763.1L209.4,763.1z M237.9,774.2
					L228,761l-10,13.2h-6.9l13.5-17.6l-12.9-16.8h6.9l9.5,12.4l9.4-12.4h6.8l-13,16.8l13.7,17.6H237.9L237.9,774.2z M300.5,774.2
					l-9.8-13.9c-1.2,0.1-2.2,0.1-2.9,0.1h-11.2v13.8h-6.5v-45.4h17.7c5.9,0,10.5,1.4,13.9,4.2c3.4,2.8,5.1,6.7,5.1,11.6
					c0,3.5-0.9,6.5-2.6,8.9c-1.7,2.5-4.2,4.3-7.4,5.4l10.8,15.2L300.5,774.2L300.5,774.2z M287.6,754.9c4.1,0,7.2-0.9,9.4-2.7
					s3.2-4.3,3.2-7.6s-1.1-5.8-3.2-7.5s-5.3-2.6-9.4-2.6h-11v20.4H287.6z M348,761.8c0,3.4-1.3,6.3-3.9,8.7
					c-2.6,2.4-6.3,3.8-11.2,4.1v7.3h-4.1v-7.3c-3.2-0.2-6.1-0.8-9-1.8s-5.1-2.3-6.8-3.9l2.4-5.1c1.6,1.4,3.5,2.6,5.9,3.5
					c2.4,0.9,4.9,1.5,7.5,1.7v-15c-3-0.7-5.5-1.5-7.5-2.4s-3.7-2.1-5.1-3.8c-1.4-1.7-2-3.9-2-6.6c0-3.4,1.2-6.3,3.7-8.7
					c2.5-2.4,6.1-3.8,10.9-4.1v-7.4h4.1v7.3c2.5,0.1,4.8,0.5,7.2,1.2c2.3,0.7,4.3,1.6,6,2.8l-2.1,5.2c-3.5-2.2-7.2-3.4-11-3.6V749
					c3.2,0.8,5.7,1.6,7.8,2.4s3.7,2.1,5.2,3.8C347.3,756.8,348,759.1,348,761.8L348,761.8z M320.6,741c0,1.9,0.7,3.3,2.1,4.3
					s3.5,1.9,6.2,2.6v-14c-2.8,0.3-4.8,1.2-6.2,2.4S320.6,739.2,320.6,741L320.6,741z M333,769.1c2.9-0.3,5.1-1,6.5-2.2
					s2.2-2.8,2.2-4.6c0-1.9-0.7-3.4-2.2-4.4s-3.6-1.9-6.4-2.7V769.1z M385.3,728.8v45.4h-6.4v-39.7h-10.2v-5.6L385.3,728.8
					L385.3,728.8z M409.9,728.3c6.1,0,10.8,2,14.1,5.9c3.3,3.9,5,9.5,5,16.7c0,5.1-0.9,9.4-2.7,12.9c-1.8,3.6-4.3,6.3-7.5,8.1
					s-7,2.8-11.2,2.8c-2.2,0-4.3-0.2-6.2-0.7s-3.6-1.1-5.1-2l2.5-5.1c2.2,1.4,5.1,2.1,8.7,2.1c4.7,0,8.4-1.5,11-4.4
					c2.7-2.9,4-7.2,4-12.7v-1.6c-1.3,1.9-3.1,3.4-5.4,4.4c-2.3,1-4.9,1.5-7.7,1.5c-3,0-5.6-0.6-8-1.7s-4.2-2.7-5.5-4.8
					c-1.3-2.1-2-4.5-2-7.2c0-2.9,0.7-5.4,2.1-7.5s3.3-3.8,5.7-5S406.9,728.3,409.9,728.3L409.9,728.3z M410.5,751.1
					c2,0,3.8-0.4,5.4-1.2c1.6-0.8,2.8-1.8,3.7-3.2c0.9-1.3,1.3-2.8,1.3-4.5c0-1.6-0.4-3.1-1.3-4.4s-2.1-2.4-3.7-3.2
					s-3.6-1.2-5.9-1.2c-3,0-5.4,0.8-7.2,2.4s-2.8,3.7-2.8,6.4s0.9,4.8,2.8,6.4S407.4,751.1,410.5,751.1L410.5,751.1z M453.7,774.7
					c-3.6,0-6.8-0.9-9.6-2.8c-2.8-1.8-5-4.5-6.6-8c-1.6-3.5-2.4-7.6-2.4-12.4c0-4.8,0.8-8.9,2.4-12.4s3.8-6.2,6.6-8s6-2.8,9.6-2.8
					c3.5,0,6.7,0.9,9.5,2.8c2.8,1.8,5,4.5,6.6,8s2.4,7.6,2.4,12.4c0,4.8-0.8,8.9-2.4,12.4c-1.6,3.5-3.8,6.2-6.6,8
					S457.3,774.7,453.7,774.7z M453.7,768.9c3.6,0,6.5-1.5,8.7-4.5s3.3-7.3,3.3-13s-1.1-10-3.3-13c-2.2-3-5.1-4.5-8.7-4.5
					c-3.7,0-6.6,1.5-8.8,4.5s-3.3,7.3-3.3,13s1.1,10,3.3,13C447.1,767.5,450.1,768.9,453.7,768.9z M482.8,765.7c1.2,0,2.2,0.4,3,1.3
					s1.2,1.9,1.2,3.1c0,0.6-0.1,1.3-0.2,1.9s-0.4,1.5-0.9,2.8l-3,9h-4.1l2.4-9.7c-0.8-0.3-1.5-0.8-2-1.5s-0.7-1.5-0.7-2.5
					c0-1.3,0.4-2.4,1.2-3.2S481.5,765.7,482.8,765.7L482.8,765.7z M511.7,774.7c-3.6,0-6.8-0.9-9.6-2.8c-2.8-1.8-5-4.5-6.6-8
					c-1.6-3.5-2.4-7.6-2.4-12.4c0-4.8,0.8-8.9,2.4-12.4s3.8-6.2,6.6-8s6-2.8,9.6-2.8c3.5,0,6.7,0.9,9.5,2.8s5,4.5,6.6,8
					s2.4,7.6,2.4,12.4c0,4.8-0.8,8.9-2.4,12.4c-1.6,3.5-3.8,6.2-6.6,8S515.2,774.7,511.7,774.7z M511.7,768.9c3.6,0,6.5-1.5,8.7-4.5
					s3.3-7.3,3.3-13s-1.1-10-3.3-13s-5.1-4.5-8.7-4.5c-3.7,0-6.6,1.5-8.8,4.5s-3.3,7.3-3.3,13s1.1,10,3.3,13
					C505.1,767.5,508,768.9,511.7,768.9z M554.9,774.7c-3.6,0-6.8-0.9-9.6-2.8c-2.8-1.8-5-4.5-6.6-8s-2.4-7.6-2.4-12.4
					c0-4.8,0.8-8.9,2.4-12.4s3.8-6.2,6.6-8c2.8-1.8,6-2.8,9.6-2.8c3.5,0,6.7,0.9,9.5,2.8s5,4.5,6.6,8s2.4,7.6,2.4,12.4
					c0,4.8-0.8,8.9-2.4,12.4c-1.6,3.5-3.8,6.2-6.6,8S558.4,774.7,554.9,774.7z M554.9,768.9c3.6,0,6.5-1.5,8.7-4.5s3.3-7.3,3.3-13
					s-1.1-10-3.3-13s-5.1-4.5-8.7-4.5c-3.7,0-6.6,1.5-8.8,4.5s-3.3,7.3-3.3,13s1.1,10,3.3,13C548.3,767.5,551.2,768.9,554.9,768.9z"
					/>
				<path class="st14" d="M178.6,458.8L159,504.2h-10.4L129,458.8h11.3l13.8,32.4l14-32.4L178.6,458.8L178.6,458.8z M196.7,468.8
					c5.4,0,9.5,1.3,12.4,3.9s4.3,6.4,4.3,11.6v19.9H204v-4.3c-1.9,3.2-5.4,4.9-10.6,4.9c-2.7,0-5-0.5-7-1.4s-3.5-2.2-4.5-3.8
					s-1.6-3.4-1.6-5.4c0-3.2,1.2-5.8,3.7-7.6s6.2-2.8,11.3-2.8h8c0-2.2-0.7-3.9-2-5.1c-1.3-1.2-3.3-1.8-6-1.8
					c-1.9,0-3.7,0.3-5.5,0.9s-3.3,1.4-4.6,2.4l-3.6-7.1c1.9-1.3,4.2-2.4,6.8-3.1S193.9,468.8,196.7,468.8L196.7,468.8z M195.9,497.9
					c1.7,0,3.3-0.4,4.6-1.2s2.3-2,2.9-3.5v-3.6h-6.9c-4.1,0-6.2,1.4-6.2,4.1c0,1.3,0.5,2.3,1.5,3.1S194.1,497.9,195.9,497.9
					L195.9,497.9z M222.6,456.1h10.1v48.1h-10.1V456.1z M258.7,504.7c-3.7,0-7-0.8-9.9-2.3c-2.9-1.5-5.2-3.7-6.8-6.4
					c-1.6-2.7-2.5-5.8-2.5-9.3s0.8-6.5,2.5-9.3c1.6-2.7,3.9-4.8,6.8-6.4s6.2-2.3,9.9-2.3s7,0.8,9.8,2.3s5.2,3.7,6.8,6.4
					c1.6,2.7,2.5,5.8,2.5,9.3s-0.8,6.5-2.5,9.3s-3.9,4.8-6.8,6.4C265.6,504,262.4,504.7,258.7,504.7z M258.7,496.4
					c2.6,0,4.7-0.9,6.4-2.6s2.5-4.1,2.5-7s-0.8-5.3-2.5-7s-3.8-2.6-6.4-2.6s-4.7,0.9-6.4,2.6s-2.5,4.1-2.5,7s0.8,5.3,2.5,7
					C254,495.5,256.1,496.4,258.7,496.4z M294.2,473.9c1.2-1.7,2.8-3,4.9-3.8s4.4-1.3,7.1-1.3v9.3c-1.1-0.1-1.9-0.1-2.3-0.1
					c-2.9,0-5.2,0.8-6.8,2.4s-2.5,4-2.5,7.3v16.5h-10.1v-34.9h9.7L294.2,473.9L294.2,473.9z M344.9,468.8c5.4,0,9.5,1.3,12.4,3.9
					c2.9,2.6,4.3,6.4,4.3,11.6v19.9h-9.5v-4.3c-1.9,3.2-5.4,4.9-10.6,4.9c-2.7,0-5-0.5-7-1.4s-3.5-2.2-4.5-3.8s-1.6-3.4-1.6-5.4
					c0-3.2,1.2-5.8,3.7-7.6s6.2-2.8,11.3-2.8h8c0-2.2-0.7-3.9-2-5.1s-3.3-1.8-6-1.8c-1.9,0-3.7,0.3-5.5,0.9s-3.3,1.4-4.6,2.4
					l-3.6-7.1c1.9-1.3,4.2-2.4,6.8-3.1S342.1,468.8,344.9,468.8L344.9,468.8z M344.1,497.9c1.7,0,3.3-0.4,4.6-1.2s2.3-2,2.9-3.5
					v-3.6h-6.9c-4.1,0-6.2,1.4-6.2,4.1c0,1.3,0.5,2.3,1.5,3.1S342.3,497.9,344.1,497.9L344.1,497.9z M398.8,473.9
					c1.2-1.7,2.8-3,4.9-3.8s4.4-1.3,7.1-1.3v9.3c-1.1-0.1-1.9-0.1-2.3-0.1c-2.9,0-5.2,0.8-6.8,2.4s-2.5,4-2.5,7.3v16.5h-10.1v-34.9
					h9.7L398.8,473.9L398.8,473.9z M451.2,486.9c0,0.1-0.1,1-0.2,2.7h-26.4c0.5,2.2,1.6,3.9,3.4,5.1s4,1.9,6.6,1.9
					c1.8,0,3.4-0.3,4.8-0.8s2.7-1.4,3.9-2.6l5.4,5.8c-3.3,3.8-8.1,5.6-14.4,5.6c-3.9,0-7.4-0.8-10.4-2.3c-3-1.5-5.4-3.7-7-6.4
					c-1.6-2.7-2.5-5.8-2.5-9.3c0-3.4,0.8-6.5,2.4-9.2s3.8-4.9,6.7-6.4s6-2.3,9.5-2.3c3.4,0,6.5,0.7,9.3,2.2s4.9,3.6,6.5,6.3
					C450.4,480.1,451.2,483.3,451.2,486.9L451.2,486.9z M433.1,476.5c-2.3,0-4.2,0.6-5.8,1.9c-1.6,1.3-2.5,3.1-2.9,5.3h17.2
					c-0.3-2.2-1.3-4-2.9-5.3S435.4,476.5,433.1,476.5z M474.8,504.7c-3.7,0-7.1-0.8-10-2.3c-3-1.5-5.3-3.7-6.9-6.4
					c-1.7-2.7-2.5-5.8-2.5-9.3s0.8-6.5,2.5-9.3s4-4.8,6.9-6.4s6.3-2.3,10-2.3c3.7,0,6.9,0.8,9.6,2.3c2.7,1.5,4.7,3.7,6,6.6l-7.8,4.2
					c-1.8-3.2-4.4-4.8-7.8-4.8c-2.6,0-4.8,0.9-6.5,2.6c-1.7,1.7-2.6,4.1-2.6,7.1s0.9,5.3,2.6,7.1c1.7,1.7,3.9,2.6,6.5,2.6
					c3.5,0,6.1-1.6,7.8-4.8l7.8,4.3c-1.3,2.8-3.3,4.9-6,6.5S478.5,504.7,474.8,504.7L474.8,504.7z M530.4,486.9c0,0.1-0.1,1-0.2,2.7
					h-26.4c0.5,2.2,1.6,3.9,3.4,5.1s4,1.9,6.6,1.9c1.8,0,3.4-0.3,4.8-0.8s2.7-1.4,3.9-2.6l5.4,5.8c-3.3,3.8-8.1,5.6-14.4,5.6
					c-3.9,0-7.4-0.8-10.4-2.3c-3-1.5-5.4-3.7-7-6.4c-1.6-2.7-2.5-5.8-2.5-9.3c0-3.4,0.8-6.5,2.4-9.2s3.8-4.9,6.7-6.4
					c2.8-1.5,6-2.3,9.5-2.3c3.4,0,6.5,0.7,9.3,2.2c2.8,1.5,4.9,3.6,6.5,6.3S530.4,483.3,530.4,486.9L530.4,486.9z M512.3,476.5
					c-2.3,0-4.2,0.6-5.8,1.9c-1.6,1.3-2.5,3.1-2.9,5.3h17.2c-0.3-2.2-1.3-4-2.9-5.3S514.6,476.5,512.3,476.5z M557.7,468.8
					c3.2,0,6.2,0.7,8.8,2.2s4.7,3.6,6.3,6.3c1.5,2.7,2.3,5.8,2.3,9.4s-0.8,6.7-2.3,9.4s-3.6,4.8-6.3,6.3c-2.7,1.5-5.6,2.2-8.8,2.2
					c-4.8,0-8.4-1.5-11-4.5v4h-9.7v-48.1h10.1V473C549.8,470.2,553.3,468.8,557.7,468.8L557.7,468.8z M556,496.4
					c2.6,0,4.7-0.9,6.4-2.6s2.5-4.1,2.5-7s-0.8-5.3-2.5-7s-3.8-2.6-6.4-2.6s-4.7,0.9-6.4,2.6s-2.5,4.1-2.5,7s0.8,5.3,2.5,7
					S553.4,496.4,556,496.4z M616,486.9c0,0.1-0.1,1-0.2,2.7h-26.4c0.5,2.2,1.6,3.9,3.4,5.1s4,1.9,6.6,1.9c1.8,0,3.4-0.3,4.8-0.8
					s2.7-1.4,3.9-2.6l5.4,5.8c-3.3,3.8-8.1,5.6-14.4,5.6c-3.9,0-7.4-0.8-10.4-2.3c-3-1.5-5.4-3.7-7-6.4c-1.6-2.7-2.5-5.8-2.5-9.3
					c0-3.4,0.8-6.5,2.4-9.2s3.8-4.9,6.7-6.4s6-2.3,9.5-2.3c3.4,0,6.5,0.7,9.3,2.2s4.9,3.6,6.5,6.3S616,483.3,616,486.9L616,486.9z
					 M597.9,476.5c-2.3,0-4.2,0.6-5.8,1.9c-1.6,1.3-2.5,3.1-2.9,5.3h17.2c-0.3-2.2-1.3-4-2.9-5.3S600.2,476.5,597.9,476.5z
					 M632.4,473.9c1.2-1.7,2.8-3,4.9-3.8s4.4-1.3,7.1-1.3v9.3c-1.1-0.1-1.9-0.1-2.3-0.1c-2.9,0-5.2,0.8-6.8,2.4s-2.5,4-2.5,7.3v16.5
					h-10.1v-34.9h9.7L632.4,473.9L632.4,473.9z"/>
				<path class="st14" d="M175.3,623.8L163.6,607h-12.9v16.8h-14v-60.5H163c5.4,0,10,0.9,14,2.7c3.9,1.8,7,4.3,9.1,7.6
					c2.1,3.3,3.2,7.2,3.2,11.7s-1.1,8.4-3.2,11.6s-5.2,5.7-9.2,7.5l13.6,19.4L175.3,623.8L175.3,623.8z M175.1,585.3
					c0-3.4-1.1-6-3.3-7.8s-5.4-2.7-9.6-2.7h-11.4v21.1h11.4c4.2,0,7.4-0.9,9.6-2.8S175.1,588.6,175.1,585.3L175.1,585.3z
					 M245.8,606.1c0,4.7-1.7,8.8-5.2,12.1c-3.5,3.4-8.4,5.5-14.9,6.3v9.7H217v-9.4c-4.3-0.2-8.3-1-12.2-2.2c-3.9-1.3-7-2.8-9.3-4.7
					l4.8-10.5c2.2,1.6,4.8,3,7.7,4.1s6,1.8,9.1,2.1V599c-4.1-1-7.5-2.1-10.4-3.3s-5.2-3-7.1-5.3c-1.9-2.3-2.9-5.4-2.9-9.3
					c0-4.8,1.7-8.9,5.2-12.3s8.5-5.5,15.1-6.3V553h8.6v9.4c7.1,0.6,12.9,2.3,17.5,5.3l-4.3,10.6c-4.3-2.5-8.7-4-13.2-4.5v14.7
					c4,0.9,7.4,2,10.2,3.2c2.8,1.2,5.1,2.9,7,5.3C244.9,599.2,245.8,602.3,245.8,606.1L245.8,606.1z M210.6,580.4
					c0,1.4,0.5,2.6,1.6,3.5c1.1,0.9,2.7,1.7,4.8,2.3V574c-2.2,0.5-3.8,1.3-4.8,2.5C211.2,577.6,210.6,578.9,210.6,580.4L210.6,580.4
					z M225.7,613.1c2.1-0.5,3.6-1.2,4.7-2.2s1.6-2.3,1.6-3.7s-0.5-2.6-1.6-3.5c-1.1-0.9-2.6-1.7-4.6-2.4V613.1L225.7,613.1z
					 M331.4,611.1h-9.8v12.7h-13.7v-12.7h-32.6v-9.4l28.5-38.4h14.7l-26.4,36.4h16.2v-11.3h13.2v11.3h9.8V611.1L331.4,611.1z
					 M356.3,586c8.5,0,14.8,1.7,18.9,5.1c4.1,3.4,6.1,7.9,6.1,13.7c0,3.7-0.9,7-2.8,10.1s-4.7,5.4-8.4,7.3c-3.8,1.8-8.4,2.7-14,2.7
					c-4.3,0-8.5-0.6-12.6-1.7c-4.1-1.1-7.6-2.7-10.5-4.8l5.5-10.7c2.3,1.7,5,3.1,7.9,4c3,1,6.1,1.4,9.2,1.4c3.5,0,6.3-0.7,8.3-2.1
					c2-1.4,3-3.3,3-5.8c0-2.6-1.1-4.6-3.2-5.9c-2.1-1.3-5.7-2-10.9-2h-15.5l3.1-34h36.9v11.2h-25.2l-1,11.5L356.3,586L356.3,586z
					 M416.1,585.9c3.9,0,7.4,0.8,10.5,2.3c3.2,1.6,5.7,3.8,7.5,6.6c1.8,2.9,2.8,6.1,2.8,9.9c0,4-1,7.6-3,10.6s-4.8,5.4-8.3,7
					s-7.4,2.5-11.6,2.5c-8.5,0-15.1-2.6-19.9-7.8c-4.8-5.2-7.2-12.6-7.2-22.2c0-6.9,1.3-12.7,3.9-17.6s6.2-8.6,10.8-11.1
					c4.6-2.5,10-3.8,16.1-3.8c3.2,0,6.3,0.4,9.3,1.1c3,0.7,5.5,1.7,7.6,3.1l-5.2,10.3c-3-2-6.8-3-11.3-3c-5.1,0-9.2,1.5-12.2,4.5
					c-3,3-4.6,7.3-4.8,13C404.7,587.7,409.7,585.9,416.1,585.9L416.1,585.9z M413.3,614.4c3,0,5.4-0.8,7.3-2.4s2.8-3.8,2.8-6.6
					c0-2.8-0.9-5-2.8-6.6s-4.4-2.5-7.5-2.5c-3.1,0-5.6,0.8-7.5,2.5s-2.9,3.9-2.9,6.5s1,4.8,2.9,6.5
					C407.4,613.5,410,614.4,413.3,614.4z M467.9,624.8c-5,0-9.5-1.2-13.4-3.7s-7-6.1-9.2-10.8c-2.2-4.7-3.3-10.3-3.3-16.8
					s1.1-12.1,3.3-16.8c2.2-4.7,5.3-8.3,9.2-10.8c3.9-2.5,8.4-3.7,13.4-3.7s9.5,1.2,13.4,3.7s7,6.1,9.2,10.8s3.3,10.3,3.3,16.8
					s-1.1,12.1-3.3,16.8c-2.2,4.7-5.3,8.3-9.2,10.8C477.4,623.6,473,624.8,467.9,624.8z M467.9,613c3.7,0,6.6-1.6,8.7-4.8
					s3.2-8.1,3.2-14.7c0-6.6-1.1-11.5-3.2-14.7c-2.1-3.2-5-4.8-8.7-4.8c-3.6,0-6.5,1.6-8.6,4.8c-2.1,3.2-3.2,8.1-3.2,14.7
					c0,6.6,1.1,11.5,3.2,14.7C461.4,611.4,464.3,613,467.9,613z M508.7,607.7c2.4,0,4.4,0.8,6,2.3c1.6,1.5,2.3,3.5,2.3,6
					c0,1.2-0.1,2.3-0.4,3.5s-0.9,2.9-1.9,5.2l-4.9,12.4h-8.6l3.8-13.7c-1.4-0.6-2.6-1.5-3.4-2.8c-0.8-1.3-1.3-2.8-1.3-4.5
					c0-2.5,0.8-4.5,2.4-6S506.3,607.7,508.7,607.7L508.7,607.7z M549.2,624.8c-5,0-9.5-1.2-13.4-3.7s-7-6.1-9.2-10.8
					c-2.2-4.7-3.3-10.3-3.3-16.8s1.1-12.1,3.3-16.8s5.3-8.3,9.2-10.8c3.9-2.5,8.4-3.7,13.4-3.7s9.5,1.2,13.4,3.7s7,6.1,9.2,10.8
					s3.3,10.3,3.3,16.8s-1.1,12.1-3.3,16.8c-2.2,4.7-5.3,8.3-9.2,10.8C558.7,623.6,554.3,624.8,549.2,624.8z M549.2,613
					c3.7,0,6.6-1.6,8.7-4.8s3.2-8.1,3.2-14.7c0-6.6-1.1-11.5-3.2-14.7c-2.1-3.2-5-4.8-8.7-4.8c-3.6,0-6.5,1.6-8.6,4.8
					s-3.2,8.1-3.2,14.7c0,6.6,1.1,11.5,3.2,14.7C542.8,611.4,545.6,613,549.2,613z M607.9,624.8c-5,0-9.5-1.2-13.4-3.7
					s-7-6.1-9.2-10.8c-2.2-4.7-3.3-10.3-3.3-16.8s1.1-12.1,3.3-16.8s5.3-8.3,9.2-10.8c3.9-2.5,8.4-3.7,13.4-3.7s9.5,1.2,13.4,3.7
					s7,6.1,9.2,10.8c2.2,4.7,3.3,10.3,3.3,16.8s-1.1,12.1-3.3,16.8c-2.2,4.7-5.3,8.3-9.2,10.8C617.4,623.6,612.9,624.8,607.9,624.8z
					 M607.9,613c3.7,0,6.6-1.6,8.7-4.8s3.2-8.1,3.2-14.7c0-6.6-1.1-11.5-3.2-14.7c-2.1-3.2-5-4.8-8.7-4.8c-3.6,0-6.5,1.6-8.6,4.8
					s-3.2,8.1-3.2,14.7c0,6.6,1.1,11.5,3.2,14.7C601.4,611.4,604.3,613,607.9,613z"/>
			</g>
			<g class="st15">
				<path id="c_1_" class="st11" d="M21.6,0H1255c11.9,0,21.6,9.7,21.6,21.6v1228.7c0,11.9-9.7,21.6-21.6,21.6H21.6
					c-11.9,0-21.6-9.7-21.6-21.6V21.6C0,9.7,9.7,0,21.6,0z"/>
			</g>
			<g>
				<path class="st16" d="M21.6,0H1255c11.9,0,21.6,9.7,21.6,21.6v1228.7c0,11.9-9.7,21.6-21.6,21.6H21.6
					c-11.9,0-21.6-9.7-21.6-21.6V21.6C0,9.7,9.7,0,21.6,0z"/>
			</g>
			<g transform="translate(0 970.13)">
				<path class="st7" d="M0,0h1276.6v280.2c0,11.9-9.7,21.6-21.6,21.6H21.6C9.7,301.8,0,292.1,0,280.2L0,0L0,0z"/>
				<path class="st4" d="M178,132.6l-19.4,44.8h-10.2L129,132.6h11.2l13.6,32l13.8-32H178z M217.3,169.1v8.3h-34.7v-44.8h33.9v8.3
					H193v9.7h20.8v8.1H193v10.4L217.3,169.1L217.3,169.1z M254.1,177.4l-8.6-12.5H236v12.5h-10.4v-44.8H245c4,0,7.4,0.7,10.3,2
					s5.2,3.2,6.8,5.6s2.4,5.3,2.4,8.6s-0.8,6.2-2.4,8.6s-3.9,4.3-6.8,5.5l10,14.4L254.1,177.4L254.1,177.4z M253.9,148.9
					c0-2.5-0.8-4.4-2.4-5.8c-1.6-1.3-4-2-7.1-2H236v15.6h8.4c3.1,0,5.5-0.7,7.1-2C253.1,153.3,253.9,151.4,253.9,148.9z
					 M312.2,178.2c-4.6,0-8.7-1-12.4-3s-6.6-4.7-8.7-8.3s-3.2-7.5-3.2-11.9c0-4.4,1.1-8.4,3.2-11.9s5-6.3,8.7-8.3s7.8-3,12.4-3
					c3.9,0,7.4,0.7,10.5,2s5.8,3.3,7.9,5.9l-6.7,6.1c-3-3.5-6.8-5.2-11.3-5.2c-2.8,0-5.2,0.6-7.4,1.8s-3.9,2.9-5.1,5.1
					s-1.8,4.7-1.8,7.4s0.6,5.2,1.8,7.4s2.9,3.9,5.1,5.1s4.7,1.8,7.4,1.8c4.5,0,8.2-1.8,11.3-5.3l6.7,6.1c-2.1,2.6-4.8,4.6-7.9,6
					S316.1,178.2,312.2,178.2L312.2,178.2z M359.4,178.2c-4.7,0-8.8-1-12.6-3s-6.7-4.8-8.8-8.3c-2.1-3.5-3.2-7.5-3.2-11.9
					s1.1-8.4,3.2-11.9c2.1-3.5,5-6.3,8.8-8.3s7.9-3,12.6-3s8.8,1,12.5,3s6.6,4.8,8.8,8.3s3.2,7.5,3.2,11.9s-1.1,8.4-3.2,11.9
					s-5.1,6.3-8.8,8.3S364,178.2,359.4,178.2z M359.4,169.4c2.6,0,5-0.6,7.2-1.8s3.8-2.9,5-5.1s1.8-4.7,1.8-7.4s-0.6-5.2-1.8-7.4
					s-2.9-3.9-5-5.1s-4.5-1.8-7.2-1.8s-5,0.6-7.2,1.8s-3.8,2.9-5,5.1s-1.8,4.7-1.8,7.4s0.6,5.2,1.8,7.4s2.9,3.9,5,5.1
					S356.7,169.4,359.4,169.4z M432.8,132.6v44.8h-8.5l-22.3-27.2v27.2h-10.2v-44.8h8.6l22.3,27.2v-27.2H432.8z M452.7,141.1h-14.3
					v-8.4h39v8.4H463v36.4h-10.4V141.1z M511.5,177.4l-8.6-12.5h-9.5v12.5h-10.4v-44.8h19.4c4,0,7.4,0.7,10.3,2s5.2,3.2,6.8,5.6
					c1.6,2.4,2.4,5.3,2.4,8.6s-0.8,6.2-2.4,8.6s-3.9,4.3-6.8,5.5l10,14.4L511.5,177.4L511.5,177.4z M511.3,148.9
					c0-2.5-0.8-4.4-2.4-5.8c-1.6-1.3-4-2-7.1-2h-8.4v15.6h8.4c3.1,0,5.5-0.7,7.1-2C510.5,153.3,511.3,151.4,511.3,148.9L511.3,148.9
					z M559.5,167.8h-20.8l-4,9.6h-10.6l20-44.8h10.2l20,44.8h-10.9L559.5,167.8L559.5,167.8z M556.2,159.9l-7.1-17.2l-7.1,17.2
					H556.2z M588.3,141.1h-14.3v-8.4h39v8.4h-14.3v36.4h-10.4V141.1z M640.3,178.2c-4.7,0-8.8-1-12.6-3s-6.7-4.8-8.8-8.3
					c-2.1-3.5-3.2-7.5-3.2-11.9s1.1-8.4,3.2-11.9c2.1-3.5,5-6.3,8.8-8.3s7.9-3,12.6-3s8.8,1,12.5,3c3.7,2,6.6,4.8,8.8,8.3
					s3.2,7.5,3.2,11.9s-1.1,8.4-3.2,11.9s-5.1,6.3-8.8,8.3S644.9,178.2,640.3,178.2z M640.3,169.4c2.6,0,5-0.6,7.2-1.8
					s3.8-2.9,5-5.1s1.8-4.7,1.8-7.4s-0.6-5.2-1.8-7.4s-2.9-3.9-5-5.1s-4.5-1.8-7.2-1.8s-5,0.6-7.2,1.8s-3.8,2.9-5,5.1
					s-1.8,4.7-1.8,7.4s0.6,5.2,1.8,7.4s2.9,3.9,5,5.1S637.6,169.4,640.3,169.4z M698,189.8c-2.6-3.9-4.5-8.4-5.9-13.5
					c-1.4-5.1-2.1-10.6-2.1-16.4c0-5.8,0.7-11.3,2.1-16.5c1.4-5.1,3.4-9.6,5.9-13.5h9.5c-2.7,4.7-4.7,9.5-5.9,14.4
					s-1.9,10.1-1.9,15.5s0.6,10.6,1.9,15.5c1.2,4.9,3.2,9.7,5.9,14.4L698,189.8L698,189.8z M735,178.2c-4.6,0-8.7-1-12.4-3
					s-6.6-4.7-8.7-8.3c-2.1-3.5-3.2-7.5-3.2-11.9c0-4.4,1.1-8.4,3.2-11.9s5-6.3,8.7-8.3s7.8-3,12.4-3c3.9,0,7.4,0.7,10.5,2
					s5.8,3.3,7.9,5.9l-6.7,6.1c-3-3.5-6.8-5.2-11.3-5.2c-2.8,0-5.2,0.6-7.4,1.8s-3.9,2.9-5.1,5.1s-1.8,4.7-1.8,7.4s0.6,5.2,1.8,7.4
					s2.9,3.9,5.1,5.1s4.7,1.8,7.4,1.8c4.5,0,8.2-1.8,11.3-5.3l6.7,6.1c-2.1,2.6-4.8,4.6-7.9,6S738.9,178.2,735,178.2L735,178.2z
					 M781.9,178.2c-4.6,0-8.7-1-12.4-3s-6.6-4.7-8.7-8.3c-2.1-3.5-3.2-7.5-3.2-11.9c0-4.4,1.1-8.4,3.2-11.9s5-6.3,8.7-8.3
					s7.8-3,12.4-3c3.9,0,7.4,0.7,10.5,2s5.8,3.3,7.9,5.9l-6.7,6.1c-3-3.5-6.8-5.2-11.3-5.2c-2.8,0-5.2,0.6-7.4,1.8s-3.9,2.9-5.1,5.1
					s-1.8,4.7-1.8,7.4s0.6,5.2,1.8,7.4s2.9,3.9,5.1,5.1s4.7,1.8,7.4,1.8c4.5,0,8.2-1.8,11.3-5.3l6.7,6.1c-2.1,2.6-4.8,4.6-7.9,6
					S785.8,178.2,781.9,178.2L781.9,178.2z M840.3,154.1c2.6,0.8,4.6,2.2,6,4.1s2.2,4.2,2.2,7c0,3.9-1.5,6.9-4.6,9.1
					c-3.1,2.1-7.5,3.2-13.3,3.2h-23.2v-44.8h21.9c5.5,0,9.7,1,12.6,3.1s4.4,4.9,4.4,8.5c0,2.2-0.5,4.1-1.6,5.8
					C843.6,151.8,842.1,153.1,840.3,154.1L840.3,154.1z M817.7,140.4V151H828c2.6,0,4.5-0.4,5.8-1.3s2-2.2,2-4s-0.7-3.1-2-3.9
					s-3.3-1.3-5.8-1.3H817.7z M829.8,169.6c2.7,0,4.8-0.4,6.2-1.3s2.1-2.3,2.1-4.2c0-3.7-2.8-5.6-8.3-5.6h-12.1v11.1L829.8,169.6
					L829.8,169.6z M851.6,189.8c2.7-4.7,4.7-9.5,5.9-14.4s1.9-10.1,1.9-15.5s-0.6-10.6-1.9-15.5s-3.2-9.7-5.9-14.4h9.5
					c2.6,3.8,4.6,8.3,6,13.4s2.1,10.7,2.1,16.5s-0.7,11.4-2,16.5s-3.4,9.6-6,13.5L851.6,189.8L851.6,189.8z"/>
			</g>
			<path class="st13" d="M146.8,728.8v45.4h-6.4v-39.7h-10.2v-5.6L146.8,728.8L146.8,728.8z M188.6,768.6v5.6H156v-4.4l18.5-17.8
				c2.2-2.2,3.8-4,4.5-5.6c0.8-1.6,1.2-3.2,1.2-4.8c0-2.4-0.8-4.2-2.5-5.5c-1.7-1.3-4.1-2-7.2-2c-5,0-8.9,1.6-11.6,4.9l-4.4-3.8
				c1.8-2.2,4.1-3.8,7-5.1s6.1-1.8,9.6-1.8c4.8,0,8.5,1.1,11.3,3.4s4.2,5.3,4.2,9.2c0,2.4-0.5,4.7-1.6,6.9s-3,4.6-5.9,7.4
				l-13.9,13.3L188.6,768.6L188.6,768.6z M218.6,774.2l-9.9-13.2l-10,13.2h-6.9l13.5-17.6l-12.9-16.8h6.9l9.5,12.4l9.4-12.4h6.8
				l-13,16.8l13.7,17.6H218.6L218.6,774.2z M281.1,774.2l-9.8-13.9c-1.2,0.1-2.2,0.1-2.9,0.1h-11.2v13.8h-6.5v-45.4h17.7
				c5.9,0,10.5,1.4,13.9,4.2c3.4,2.8,5.1,6.7,5.1,11.6c0,3.5-0.9,6.5-2.6,8.9c-1.7,2.5-4.2,4.3-7.4,5.4l10.8,15.2L281.1,774.2
				L281.1,774.2z M268.3,754.9c4.1,0,7.2-0.9,9.4-2.7s3.2-4.3,3.2-7.6s-1.1-5.8-3.2-7.5s-5.3-2.6-9.4-2.6h-11v20.4H268.3z
				 M328.7,761.8c0,3.4-1.3,6.3-3.9,8.7s-6.3,3.8-11.2,4.1v7.3h-4.1v-7.3c-3.2-0.2-6.1-0.8-9-1.8s-5.1-2.3-6.8-3.9l2.4-5.1
				c1.6,1.4,3.5,2.6,5.9,3.5c2.4,0.9,4.9,1.5,7.5,1.7v-15c-3-0.7-5.5-1.5-7.5-2.4s-3.7-2.1-5.1-3.8c-1.4-1.7-2-3.9-2-6.6
				c0-3.4,1.2-6.3,3.7-8.7c2.5-2.4,6.1-3.8,10.9-4.1v-7.4h4.1v7.3c2.5,0.1,4.8,0.5,7.2,1.2c2.3,0.7,4.3,1.6,6,2.8l-2.1,5.2
				c-3.5-2.2-7.2-3.4-11-3.6V749c3.2,0.8,5.7,1.6,7.8,2.4s3.7,2.1,5.2,3.8S328.7,759.1,328.7,761.8L328.7,761.8z M301.2,741
				c0,1.9,0.7,3.3,2.1,4.3s3.5,1.9,6.2,2.6v-14c-2.8,0.3-4.8,1.2-6.2,2.4S301.2,739.2,301.2,741L301.2,741z M313.6,769.1
				c2.9-0.3,5.1-1,6.5-2.2s2.2-2.8,2.2-4.6c0-1.9-0.7-3.4-2.2-4.4c-1.5-1-3.6-1.9-6.4-2.7V769.1z M365.9,728.8v45.4h-6.4v-39.7
				h-10.2v-5.6L365.9,728.8L365.9,728.8z M390.5,728.3c6.1,0,10.8,2,14.1,5.9c3.3,3.9,5,9.5,5,16.7c0,5.1-0.9,9.4-2.7,12.9
				c-1.8,3.6-4.3,6.3-7.5,8.1s-7,2.8-11.2,2.8c-2.2,0-4.3-0.2-6.2-0.7s-3.6-1.1-5.1-2l2.5-5.1c2.2,1.4,5.1,2.1,8.7,2.1
				c4.7,0,8.4-1.5,11-4.4c2.7-2.9,4-7.2,4-12.7v-1.6c-1.3,1.9-3.1,3.4-5.4,4.4s-4.9,1.5-7.7,1.5c-3,0-5.6-0.6-8-1.7
				s-4.2-2.7-5.5-4.8c-1.3-2.1-2-4.5-2-7.2c0-2.9,0.7-5.4,2.1-7.5s3.3-3.8,5.7-5S387.5,728.3,390.5,728.3L390.5,728.3z M391.1,751.1
				c2,0,3.8-0.4,5.4-1.2s2.8-1.8,3.7-3.2c0.9-1.3,1.3-2.8,1.3-4.5c0-1.6-0.4-3.1-1.3-4.4s-2.1-2.4-3.7-3.2s-3.6-1.2-5.9-1.2
				c-3,0-5.4,0.8-7.2,2.4s-2.8,3.7-2.8,6.4s0.9,4.8,2.8,6.4S388,751.1,391.1,751.1L391.1,751.1z M434.4,774.7
				c-3.6,0-6.8-0.9-9.6-2.8s-5-4.5-6.6-8c-1.6-3.5-2.4-7.6-2.4-12.4c0-4.8,0.8-8.9,2.4-12.4c1.6-3.5,3.8-6.2,6.6-8s6-2.8,9.6-2.8
				c3.5,0,6.7,0.9,9.5,2.8c2.8,1.8,5,4.5,6.6,8s2.4,7.6,2.4,12.4c0,4.8-0.8,8.9-2.4,12.4c-1.6,3.5-3.8,6.2-6.6,8
				S437.9,774.7,434.4,774.7z M434.4,769c3.6,0,6.5-1.5,8.7-4.5s3.3-7.3,3.3-13s-1.1-10-3.3-13c-2.2-3-5.1-4.5-8.7-4.5
				c-3.7,0-6.6,1.5-8.8,4.5s-3.3,7.3-3.3,13s1.1,10,3.3,13C427.8,767.5,430.7,769,434.4,769z M463.4,765.7c1.2,0,2.2,0.4,3,1.3
				s1.2,1.9,1.2,3.1c0,0.6-0.1,1.3-0.2,1.9s-0.4,1.5-0.9,2.8l-3,9h-4.1l2.4-9.7c-0.8-0.3-1.5-0.8-2-1.5s-0.7-1.5-0.7-2.5
				c0-1.3,0.4-2.4,1.2-3.2S462.1,765.7,463.4,765.7L463.4,765.7z M492.3,774.7c-3.6,0-6.8-0.9-9.6-2.8s-5-4.5-6.6-8
				c-1.6-3.5-2.4-7.6-2.4-12.4c0-4.8,0.8-8.9,2.4-12.4s3.8-6.2,6.6-8s6-2.8,9.6-2.8c3.5,0,6.7,0.9,9.5,2.8c2.8,1.8,5,4.5,6.6,8
				s2.4,7.6,2.4,12.4c0,4.8-0.8,8.9-2.4,12.4c-1.6,3.5-3.8,6.2-6.6,8S495.8,774.7,492.3,774.7z M492.3,769c3.6,0,6.5-1.5,8.7-4.5
				s3.3-7.3,3.3-13s-1.1-10-3.3-13c-2.2-3-5.1-4.5-8.7-4.5c-3.7,0-6.6,1.5-8.8,4.5s-3.3,7.3-3.3,13s1.1,10,3.3,13
				C485.7,767.5,488.6,769,492.3,769z M535.5,774.7c-3.6,0-6.8-0.9-9.6-2.8s-5-4.5-6.6-8s-2.4-7.6-2.4-12.4c0-4.8,0.8-8.9,2.4-12.4
				s3.8-6.2,6.6-8s6-2.8,9.6-2.8c3.5,0,6.7,0.9,9.5,2.8c2.8,1.8,5,4.5,6.6,8s2.4,7.6,2.4,12.4c0,4.8-0.8,8.9-2.4,12.4
				c-1.6,3.5-3.8,6.2-6.6,8C542.2,773.8,539,774.7,535.5,774.7z M535.5,769c3.6,0,6.5-1.5,8.7-4.5s3.3-7.3,3.3-13s-1.1-10-3.3-13
				c-2.2-3-5.1-4.5-8.7-4.5c-3.7,0-6.6,1.5-8.8,4.5s-3.3,7.3-3.3,13s1.1,10,3.3,13C528.9,767.5,531.8,769,535.5,769z"/>
			<path class="st14" d="M178.6,458.8L159,504.2h-10.4L129,458.8h11.3l13.8,32.4l14-32.4L178.6,458.8L178.6,458.8z M196.7,468.8
				c5.4,0,9.5,1.3,12.4,3.9s4.3,6.4,4.3,11.6v19.9H204v-4.3c-1.9,3.2-5.4,4.9-10.6,4.9c-2.7,0-5-0.5-7-1.4s-3.5-2.2-4.5-3.8
				s-1.6-3.4-1.6-5.4c0-3.2,1.2-5.8,3.7-7.6s6.2-2.8,11.3-2.8h8c0-2.2-0.7-3.9-2-5.1c-1.3-1.2-3.3-1.8-6-1.8c-1.9,0-3.7,0.3-5.5,0.9
				s-3.3,1.4-4.6,2.4l-3.6-7.1c1.9-1.3,4.2-2.4,6.8-3.1S193.9,468.8,196.7,468.8L196.7,468.8z M195.9,497.9c1.7,0,3.3-0.4,4.6-1.2
				s2.3-2,2.9-3.5v-3.6h-6.9c-4.1,0-6.2,1.4-6.2,4.1c0,1.3,0.5,2.3,1.5,3.1S194.1,497.9,195.9,497.9L195.9,497.9z M222.6,456.1h10.1
				v48.1h-10.1V456.1z M258.7,504.7c-3.7,0-7-0.8-9.9-2.3c-2.9-1.5-5.2-3.7-6.8-6.4c-1.6-2.7-2.5-5.8-2.5-9.3s0.8-6.5,2.5-9.3
				c1.6-2.7,3.9-4.8,6.8-6.4s6.2-2.3,9.9-2.3s7,0.8,9.8,2.3s5.2,3.7,6.8,6.4c1.6,2.7,2.5,5.8,2.5,9.3s-0.8,6.5-2.5,9.3
				s-3.9,4.8-6.8,6.4C265.6,504,262.4,504.7,258.7,504.7z M258.7,496.4c2.6,0,4.7-0.9,6.4-2.6s2.5-4.1,2.5-7s-0.8-5.3-2.5-7
				s-3.8-2.6-6.4-2.6s-4.7,0.9-6.4,2.6s-2.5,4.1-2.5,7s0.8,5.3,2.5,7C254,495.5,256.1,496.4,258.7,496.4z M294.2,473.9
				c1.2-1.7,2.8-3,4.9-3.8s4.4-1.3,7.1-1.3v9.3c-1.1-0.1-1.9-0.1-2.3-0.1c-2.9,0-5.2,0.8-6.8,2.4s-2.5,4-2.5,7.3v16.5h-10.1v-34.9
				h9.7L294.2,473.9L294.2,473.9z M344.9,468.8c5.4,0,9.5,1.3,12.4,3.9c2.9,2.6,4.3,6.4,4.3,11.6v19.9h-9.5v-4.3
				c-1.9,3.2-5.4,4.9-10.6,4.9c-2.7,0-5-0.5-7-1.4s-3.5-2.2-4.5-3.8s-1.6-3.4-1.6-5.4c0-3.2,1.2-5.8,3.7-7.6s6.2-2.8,11.3-2.8h8
				c0-2.2-0.7-3.9-2-5.1s-3.3-1.8-6-1.8c-1.9,0-3.7,0.3-5.5,0.9s-3.3,1.4-4.6,2.4l-3.6-7.1c1.9-1.3,4.2-2.4,6.8-3.1
				S342.1,468.8,344.9,468.8L344.9,468.8z M344.1,497.9c1.7,0,3.3-0.4,4.6-1.2s2.3-2,2.9-3.5v-3.6h-6.9c-4.1,0-6.2,1.4-6.2,4.1
				c0,1.3,0.5,2.3,1.5,3.1S342.3,497.9,344.1,497.9L344.1,497.9z M398.8,473.9c1.2-1.7,2.8-3,4.9-3.8s4.4-1.3,7.1-1.3v9.3
				c-1.1-0.1-1.9-0.1-2.3-0.1c-2.9,0-5.2,0.8-6.8,2.4s-2.5,4-2.5,7.3v16.5h-10.1v-34.9h9.7L398.8,473.9L398.8,473.9z M451.2,486.9
				c0,0.1-0.1,1-0.2,2.7h-26.4c0.5,2.2,1.6,3.9,3.4,5.1s4,1.9,6.6,1.9c1.8,0,3.4-0.3,4.8-0.8s2.7-1.4,3.9-2.6l5.4,5.8
				c-3.3,3.8-8.1,5.6-14.4,5.6c-3.9,0-7.4-0.8-10.4-2.3c-3-1.5-5.4-3.7-7-6.4c-1.6-2.7-2.5-5.8-2.5-9.3c0-3.4,0.8-6.5,2.4-9.2
				s3.8-4.9,6.7-6.4s6-2.3,9.5-2.3c3.4,0,6.5,0.7,9.3,2.2s4.9,3.6,6.5,6.3C450.4,480.1,451.2,483.3,451.2,486.9L451.2,486.9z
				 M433.1,476.5c-2.3,0-4.2,0.6-5.8,1.9c-1.6,1.3-2.5,3.1-2.9,5.3h17.2c-0.3-2.2-1.3-4-2.9-5.3S435.4,476.5,433.1,476.5z
				 M474.8,504.7c-3.7,0-7.1-0.8-10-2.3c-3-1.5-5.3-3.7-6.9-6.4c-1.7-2.7-2.5-5.8-2.5-9.3s0.8-6.5,2.5-9.3s4-4.8,6.9-6.4
				s6.3-2.3,10-2.3c3.7,0,6.9,0.8,9.6,2.3c2.7,1.5,4.7,3.7,6,6.6l-7.8,4.2c-1.8-3.2-4.4-4.8-7.8-4.8c-2.6,0-4.8,0.9-6.5,2.6
				c-1.7,1.7-2.6,4.1-2.6,7.1s0.9,5.3,2.6,7.1c1.7,1.7,3.9,2.6,6.5,2.6c3.5,0,6.1-1.6,7.8-4.8l7.8,4.3c-1.3,2.8-3.3,4.9-6,6.5
				S478.5,504.7,474.8,504.7L474.8,504.7z M530.4,486.9c0,0.1-0.1,1-0.2,2.7h-26.4c0.5,2.2,1.6,3.9,3.4,5.1s4,1.9,6.6,1.9
				c1.8,0,3.4-0.3,4.8-0.8s2.7-1.4,3.9-2.6l5.4,5.8c-3.3,3.8-8.1,5.6-14.4,5.6c-3.9,0-7.4-0.8-10.4-2.3c-3-1.5-5.4-3.7-7-6.4
				c-1.6-2.7-2.5-5.8-2.5-9.3c0-3.4,0.8-6.5,2.4-9.2s3.8-4.9,6.7-6.4c2.8-1.5,6-2.3,9.5-2.3c3.4,0,6.5,0.7,9.3,2.2
				c2.8,1.5,4.9,3.6,6.5,6.3S530.4,483.3,530.4,486.9L530.4,486.9z M512.3,476.5c-2.3,0-4.2,0.6-5.8,1.9c-1.6,1.3-2.5,3.1-2.9,5.3
				h17.2c-0.3-2.2-1.3-4-2.9-5.3S514.6,476.5,512.3,476.5z M557.7,468.8c3.2,0,6.2,0.7,8.8,2.2s4.7,3.6,6.3,6.3
				c1.5,2.7,2.3,5.8,2.3,9.4s-0.8,6.7-2.3,9.4s-3.6,4.8-6.3,6.3c-2.7,1.5-5.6,2.2-8.8,2.2c-4.8,0-8.4-1.5-11-4.5v4h-9.7v-48.1h10.1
				V473C549.8,470.2,553.3,468.8,557.7,468.8L557.7,468.8z M556,496.4c2.6,0,4.7-0.9,6.4-2.6s2.5-4.1,2.5-7s-0.8-5.3-2.5-7
				s-3.8-2.6-6.4-2.6s-4.7,0.9-6.4,2.6s-2.5,4.1-2.5,7s0.8,5.3,2.5,7S553.4,496.4,556,496.4z M616,486.9c0,0.1-0.1,1-0.2,2.7h-26.4
				c0.5,2.2,1.6,3.9,3.4,5.1s4,1.9,6.6,1.9c1.8,0,3.4-0.3,4.8-0.8s2.7-1.4,3.9-2.6l5.4,5.8c-3.3,3.8-8.1,5.6-14.4,5.6
				c-3.9,0-7.4-0.8-10.4-2.3c-3-1.5-5.4-3.7-7-6.4c-1.6-2.7-2.5-5.8-2.5-9.3c0-3.4,0.8-6.5,2.4-9.2s3.8-4.9,6.7-6.4s6-2.3,9.5-2.3
				c3.4,0,6.5,0.7,9.3,2.2s4.9,3.6,6.5,6.3S616,483.3,616,486.9L616,486.9z M597.9,476.5c-2.3,0-4.2,0.6-5.8,1.9
				c-1.6,1.3-2.5,3.1-2.9,5.3h17.2c-0.3-2.2-1.3-4-2.9-5.3S600.2,476.5,597.9,476.5z M632.4,473.9c1.2-1.7,2.8-3,4.9-3.8
				s4.4-1.3,7.1-1.3v9.3c-1.1-0.1-1.9-0.1-2.3-0.1c-2.9,0-5.2,0.8-6.8,2.4s-2.5,4-2.5,7.3v16.5h-10.1v-34.9h9.7L632.4,473.9
				L632.4,473.9z"/>
			<path class="st14" d="M175.3,623.8L163.6,607h-12.9v16.8h-14v-60.5H163c5.4,0,10,0.9,14,2.7c3.9,1.8,7,4.3,9.1,7.6
				c2.1,3.3,3.2,7.2,3.2,11.7s-1.1,8.4-3.2,11.6s-5.2,5.7-9.2,7.5l13.6,19.4L175.3,623.8L175.3,623.8z M175.1,585.3
				c0-3.4-1.1-6-3.3-7.8s-5.4-2.7-9.6-2.7h-11.4v21.1h11.4c4.2,0,7.4-0.9,9.6-2.8S175.1,588.6,175.1,585.3L175.1,585.3z
				 M245.8,606.1c0,4.7-1.7,8.8-5.2,12.1c-3.5,3.4-8.4,5.5-14.9,6.3v9.7H217v-9.4c-4.3-0.2-8.3-1-12.2-2.2c-3.9-1.3-7-2.8-9.3-4.7
				l4.8-10.5c2.2,1.6,4.8,3,7.7,4.1s6,1.8,9.1,2.1V599c-4.1-1-7.5-2.1-10.4-3.3s-5.2-3-7.1-5.3c-1.9-2.3-2.9-5.4-2.9-9.3
				c0-4.8,1.7-8.9,5.2-12.3s8.5-5.5,15.1-6.3V553h8.6v9.4c7.1,0.6,12.9,2.3,17.5,5.3l-4.3,10.6c-4.3-2.5-8.7-4-13.2-4.5v14.7
				c4,0.9,7.4,2,10.2,3.2c2.8,1.2,5.1,2.9,7,5.3C244.9,599.2,245.8,602.3,245.8,606.1L245.8,606.1z M210.6,580.4
				c0,1.4,0.5,2.6,1.6,3.5c1.1,0.9,2.7,1.7,4.8,2.3V574c-2.2,0.5-3.8,1.3-4.8,2.5C211.2,577.6,210.6,578.9,210.6,580.4L210.6,580.4z
				 M225.7,613.1c2.1-0.5,3.6-1.2,4.7-2.2s1.6-2.3,1.6-3.7s-0.5-2.6-1.6-3.5c-1.1-0.9-2.6-1.7-4.6-2.4V613.1L225.7,613.1z
				 M304.3,587.9c5.3,0.9,9.4,2.8,12.2,5.9c2.8,3.1,4.2,6.9,4.2,11.4c0,3.5-0.9,6.8-2.8,9.7s-4.7,5.3-8.4,7.1s-8.4,2.7-13.9,2.7
				c-4.3,0-8.5-0.6-12.6-1.7c-4.1-1.1-7.6-2.7-10.5-4.8l5.4-10.7c2.3,1.7,5,3.1,8,4c3,1,6.1,1.4,9.3,1.4c3.5,0,6.3-0.7,8.3-2
				s3-3.3,3-5.7c0-5-3.8-7.4-11.3-7.4h-6.4v-9.2l12.4-14.1h-25.7v-11.2H318v9.1L304.3,587.9L304.3,587.9z M372.4,612.4v11.4h-45.7
				v-9.1l23.3-22c2.5-2.4,4.1-4.4,5-6.1s1.3-3.4,1.3-5.1c0-2.4-0.8-4.3-2.5-5.6s-4-1.9-7.2-1.9c-2.6,0-5,0.5-7.2,1.5
				s-3.9,2.5-5.4,4.5l-10.2-6.6c2.4-3.5,5.6-6.3,9.8-8.3c4.1-2,8.9-3,14.3-3c4.5,0,8.4,0.7,11.8,2.2c3.4,1.5,6,3.5,7.9,6.2
				s2.8,5.8,2.8,9.5c0,3.3-0.7,6.4-2.1,9.2s-4.1,6.2-8,9.8l-13.9,13.1L372.4,612.4L372.4,612.4z M423.4,612.4v11.4h-45.7v-9.1
				l23.3-22c2.5-2.4,4.1-4.4,5-6.1c0.9-1.7,1.3-3.4,1.3-5.1c0-2.4-0.8-4.3-2.5-5.6s-4-1.9-7.2-1.9c-2.6,0-5,0.5-7.2,1.5
				s-3.9,2.5-5.4,4.5l-10.2-6.6c2.4-3.5,5.6-6.3,9.8-8.3c4.1-2,8.9-3,14.3-3c4.5,0,8.4,0.7,11.8,2.2c3.4,1.5,6,3.5,7.9,6.2
				s2.8,5.8,2.8,9.5c0,3.3-0.7,6.4-2.1,9.2c-1.4,2.9-4.1,6.2-8,9.8l-13.9,13.1L423.4,612.4L423.4,612.4z M470.5,592
				c3,1.5,5.3,3.5,6.9,5.9s2.4,5.2,2.4,8.4c0,3.7-1.1,7-3.2,9.8s-5.1,5-9,6.5c-3.9,1.5-8.3,2.3-13.4,2.3s-9.5-0.8-13.3-2.3
				c-3.8-1.5-6.8-3.7-8.9-6.5s-3.2-6.1-3.2-9.8c0-3.2,0.8-6,2.4-8.4s3.8-4.4,6.8-5.9c-2.2-1.4-4-3.1-5.2-5.2s-1.8-4.5-1.8-7.2
				c0-3.5,1-6.6,2.9-9.2s4.7-4.6,8.2-6s7.5-2.1,12.1-2.1c4.6,0,8.7,0.7,12.2,2.1c3.5,1.4,6.3,3.4,8.3,6c2,2.6,2.9,5.6,2.9,9.2
				c0,2.7-0.6,5.1-1.8,7.2S472.8,590.6,470.5,592L470.5,592z M454.2,572.6c-2.8,0-5.1,0.7-6.8,2c-1.7,1.4-2.5,3.2-2.5,5.6
				c0,2.3,0.8,4.1,2.5,5.4c1.7,1.3,3.9,2,6.8,2s5.2-0.7,6.9-2c1.7-1.3,2.6-3.1,2.6-5.4c0-2.4-0.9-4.2-2.6-5.6
				C459.4,573.2,457.1,572.6,454.2,572.6z M454.2,614.6c3.5,0,6.3-0.8,8.3-2.4s3.1-3.7,3.1-6.4s-1-4.8-3.1-6.3s-4.8-2.3-8.3-2.3
				c-3.5,0-6.2,0.8-8.2,2.3c-2,1.6-3,3.7-3,6.3c0,2.7,1,4.8,3,6.4C448,613.8,450.8,614.6,454.2,614.6L454.2,614.6z M494.2,607.7
				c2.4,0,4.4,0.8,6,2.3s2.3,3.5,2.3,6c0,1.2-0.1,2.3-0.4,3.5s-0.9,2.9-1.9,5.2l-4.9,12.4h-8.6l3.8-13.7c-1.4-0.6-2.6-1.5-3.4-2.8
				c-0.8-1.3-1.3-2.8-1.3-4.5c0-2.5,0.8-4.5,2.4-6S491.8,607.7,494.2,607.7L494.2,607.7z M532.1,563.3v60.5h-14v-49.2H506v-11.2
				H532.1z M568.6,624.8c-5,0-9.5-1.2-13.4-3.7s-7-6.1-9.2-10.8c-2.2-4.7-3.3-10.3-3.3-16.8s1.1-12.1,3.3-16.8s5.3-8.3,9.2-10.8
				c3.9-2.5,8.4-3.7,13.4-3.7s9.5,1.2,13.4,3.7s7,6.1,9.2,10.8s3.3,10.3,3.3,16.8s-1.1,12.1-3.3,16.8c-2.2,4.7-5.3,8.3-9.2,10.8
				C578.1,623.6,573.6,624.8,568.6,624.8z M568.6,613c3.7,0,6.6-1.6,8.7-4.8s3.2-8.1,3.2-14.7c0-6.6-1.1-11.5-3.2-14.7
				c-2.1-3.2-5-4.8-8.7-4.8c-3.6,0-6.5,1.6-8.6,4.8s-3.2,8.1-3.2,14.7c0,6.6,1.1,11.5,3.2,14.7C562.1,611.4,565,613,568.6,613z"/>
			<g transform="translate(129.98 129.18)">
				<g>
					<path class="st3" d="M10.8,0H162c6,0,10.8,4.8,10.8,10.8V162c0,6-4.8,10.8-10.8,10.8H10.8C4.8,172.8,0,168,0,162V10.8
						C0,4.8,4.8,0,10.8,0z"/>
				</g>
				<defs>
					<filter id="Adobe_OpacityMaskFilter_2_" filterUnits="userSpaceOnUse" x="54" y="59.4" width="64.8" height="48.6">
						<feColorMatrix  type="matrix" values="1 0 0 0 0  0 1 0 0 0  0 0 1 0 0  0 0 0 1 0"/>
					</filter>
				</defs>
				<mask maskUnits="userSpaceOnUse" x="54" y="59.4" width="64.8" height="48.6" id="f_1_">
					<g class="st17">
						<path id="b_1_" class="st0" d="M10.8,0H162c6,0,10.8,4.8,10.8,10.8V162c0,6-4.8,10.8-10.8,10.8H10.8C4.8,172.8,0,168,0,162
							V10.8C0,4.8,4.8,0,10.8,0z"/>
					</g>
				</mask>
				<path class="st18" d="M109.6,61c2.1-2.1,5.5-2.1,7.6,0c2.1,2.1,2.1,5.5,0,7.6l-37.8,37.8c-2.1,2.1-5.5,2.1-7.6,0L55.6,90.2
					c-2.1-2.1-2.1-5.5,0-7.6c2.1-2.1,5.5-2.1,7.6,0L75.6,95L109.6,61L109.6,61z"/>
			</g>
			<g transform="translate(1363.2)">
				<path class="st13" d="M57.4,73.8v68H41.7V86.4H28.1V73.8C28.1,73.8,57.4,73.8,57.4,73.8z M111.1,60h13.5l-32.1,91.6H79
					C79,151.5,111.1,60,111.1,60z M191.7,129v12.8h-51.4v-10.2l26.2-24.8c2.8-2.7,4.7-4.9,5.6-6.9s1.5-3.8,1.5-5.7
					c0-2.7-0.9-4.8-2.8-6.3s-4.6-2.2-8.1-2.2c-3,0-5.7,0.6-8.1,1.7s-4.4,2.8-6,5.1l-11.5-7.4c2.7-4,6.3-7,11-9.3
					c4.7-2.2,10-3.4,16-3.4c5.1,0,9.5,0.8,13.3,2.5c3.8,1.7,6.7,4,8.8,7s3.2,6.6,3.2,10.6c0,3.7-0.8,7.2-2.3,10.4
					c-1.6,3.2-4.6,6.9-9,11.1L162.4,129L191.7,129L191.7,129z"/>
			</g>
		</g>
	</g>
	<defs>
		<filter id="Adobe_OpacityMaskFilter_3_" filterUnits="userSpaceOnUse" x="168" y="643.4" width="1594.8" height="299">
			<feColorMatrix  type="matrix" values="1 0 0 0 0  0 1 0 0 0  0 0 1 0 0  0 0 0 1 0"/>
		</filter>
	</defs>
	<mask maskUnits="userSpaceOnUse" x="168" y="643.4" width="1594.8" height="299" id="a_3_">
		<g class="st19">
			<path id="e_3_" class="st0" d="M78.4,0h1855.8c43.3,0,78.4,35.1,78.4,78.4v3990.7c0,43.3-35.1,78.4-78.4,78.4H78.4
				c-43.3,0-78.4-35.1-78.4-78.4V78.4C0,35.1,35.1,0,78.4,0z"/>
		</g>
	</mask>
	<g class="st20">
		<g transform="translate(164 643)">
			<path class="st13" d="M26.1,283.6c-4.3,0-8.5-0.7-12.6-2c-4-1.3-7.2-3.1-9.5-5.2l3-6.4c2.2,2,5,3.6,8.4,4.8s7,1.9,10.6,1.9
				c4.8,0,8.4-0.8,10.7-2.4c2.4-1.6,3.5-3.8,3.5-6.5c0-2-0.6-3.6-1.9-4.8c-1.3-1.2-2.9-2.2-4.8-2.8s-4.6-1.4-8-2.2
				c-4.3-1-7.8-2.1-10.5-3.1s-4.9-2.7-6.8-4.8c-1.9-2.2-2.8-5.1-2.8-8.8c0-3.1,0.8-5.9,2.4-8.3c1.6-2.5,4.1-4.5,7.4-5.9
				s7.4-2.2,12.3-2.2c3.4,0,6.8,0.4,10.1,1.3c3.3,0.9,6.1,2.1,8.5,3.8l-2.7,6.6c-2.4-1.5-5-2.7-7.7-3.5s-5.4-1.2-8.1-1.2
				c-4.7,0-8.2,0.9-10.5,2.6c-2.3,1.7-3.5,3.9-3.5,6.6c0,2,0.7,3.6,2,4.8c1.3,1.2,3,2.2,4.9,2.9c2,0.7,4.6,1.4,8,2.2
				c4.3,1,7.8,2.1,10.5,3.1s4.9,2.6,6.8,4.8s2.8,5,2.8,8.7c0,3-0.8,5.8-2.5,8.3c-1.6,2.5-4.1,4.5-7.5,5.9
				C35.1,282.9,31,283.6,26.1,283.6L26.1,283.6z M98.8,261.3c0,0.6-0.1,1.4-0.2,2.4H63.2c0.5,3.8,2.2,6.9,5.1,9.3s6.5,3.5,10.8,3.5
				c5.2,0,9.4-1.8,12.6-5.3l4.4,5.1c-2,2.3-4.4,4.1-7.4,5.3c-2.9,1.2-6.2,1.8-9.8,1.8c-4.6,0-8.7-0.9-12.3-2.8
				c-3.6-1.9-6.3-4.5-8.3-8s-2.9-7.3-2.9-11.5c0-4.2,0.9-8,2.8-11.5s4.5-6.1,7.8-8c3.3-1.9,7.1-2.8,11.2-2.8s7.9,0.9,11.2,2.8
				c3.3,1.9,5.8,4.5,7.7,8C97.9,253.1,98.8,257,98.8,261.3L98.8,261.3z M77.2,245.5c-3.8,0-7,1.2-9.5,3.5c-2.6,2.3-4.1,5.3-4.5,9.1
				h28c-0.4-3.7-1.9-6.7-4.5-9C84.2,246.7,81,245.5,77.2,245.5L77.2,245.5z M109.8,221.8h7.9v61.1h-7.9V221.8z M172.2,261.3
				c0,0.6-0.1,1.4-0.2,2.4h-35.4c0.5,3.8,2.2,6.9,5.1,9.3c2.9,2.3,6.5,3.5,10.8,3.5c5.2,0,9.4-1.8,12.6-5.3l4.4,5.1
				c-2,2.3-4.4,4.1-7.4,5.3s-6.2,1.8-9.8,1.8c-4.6,0-8.7-0.9-12.3-2.8c-3.6-1.9-6.3-4.5-8.3-8s-2.9-7.3-2.9-11.5
				c0-4.2,0.9-8,2.8-11.5s4.5-6.1,7.8-8c3.3-1.9,7.1-2.8,11.2-2.8s7.9,0.9,11.2,2.8c3.3,1.9,5.8,4.5,7.7,8
				C171.3,253.1,172.2,257,172.2,261.3L172.2,261.3z M150.7,245.5c-3.8,0-7,1.2-9.5,3.5c-2.6,2.3-4.1,5.3-4.5,9.1h28
				c-0.4-3.7-1.9-6.7-4.5-9C157.6,246.7,154.4,245.5,150.7,245.5L150.7,245.5z M202.2,283.4c-4.5,0-8.4-1-11.9-2.9
				c-3.5-1.9-6.2-4.6-8.2-8c-2-3.4-3-7.2-3-11.5c0-4.3,1-8.1,3-11.5c2-3.4,4.7-6,8.2-7.9c3.5-1.9,7.5-2.8,11.9-2.8
				c4,0,7.5,0.8,10.6,2.4s5.5,3.9,7.2,6.9l-6,3.9c-1.4-2.1-3.1-3.7-5.1-4.7s-4.3-1.6-6.8-1.6c-2.9,0-5.4,0.6-7.7,1.9
				c-2.3,1.3-4.1,3.1-5.4,5.4c-1.3,2.3-1.9,5-1.9,8c0,3.1,0.6,5.8,1.9,8.1c1.3,2.3,3.1,4.1,5.4,5.4c2.3,1.3,4.8,1.9,7.7,1.9
				c2.5,0,4.7-0.5,6.8-1.6s3.7-2.6,5.1-4.7l6,3.8c-1.7,3-4.1,5.3-7.2,7S206.2,283.4,202.2,283.4L202.2,283.4z M230.3,239.3h7.9v43.7
				h-7.9V239.3z M234.2,230.9c-1.5,0-2.8-0.5-3.8-1.5s-1.5-2.2-1.5-3.6s0.5-2.7,1.5-3.7s2.3-1.5,3.8-1.5c1.5,0,2.8,0.5,3.8,1.4
				s1.5,2.2,1.5,3.6c0,1.5-0.5,2.7-1.5,3.7C237,230.3,235.8,230.9,234.2,230.9L234.2,230.9z M272,283.4c-4.3,0-8.2-1-11.7-2.9
				c-3.5-1.9-6.2-4.6-8.1-8c-2-3.4-2.9-7.2-2.9-11.5c0-4.3,1-8.1,2.9-11.5c2-3.4,4.7-6,8.1-7.9c3.5-1.9,7.4-2.8,11.7-2.8
				s8.2,0.9,11.7,2.8s6.1,4.5,8.1,7.9s2.9,7.2,2.9,11.5c0,4.3-1,8.1-2.9,11.5s-4.6,6-8.1,8S276.3,283.4,272,283.4z M272,276.5
				c2.8,0,5.3-0.6,7.5-1.9c2.2-1.3,4-3.1,5.2-5.4s1.9-5,1.9-8s-0.6-5.7-1.9-8c-1.3-2.3-3-4.1-5.2-5.4c-2.2-1.3-4.7-1.9-7.5-1.9
				s-5.3,0.6-7.5,1.9s-4,3.1-5.3,5.4s-1.9,5-1.9,8s0.6,5.7,1.9,8c1.3,2.3,3,4.1,5.3,5.4C266.6,275.9,269.2,276.5,272,276.5z
				 M328.9,238.9c5.5,0,10,1.6,13.2,4.8s4.9,7.9,4.9,14.1v25.1h-7.9v-24.2c0-4.2-1-7.4-3-9.6s-4.9-3.2-8.7-3.2
				c-4.3,0-7.7,1.2-10.1,3.7c-2.5,2.5-3.7,6.1-3.7,10.8v22.5h-7.9v-43.7h7.6v6.6c1.6-2.3,3.7-4,6.5-5.2
				C322.4,239.5,325.4,238.9,328.9,238.9L328.9,238.9z M401.2,261.3c0,0.6-0.1,1.4-0.2,2.4h-35.4c0.5,3.8,2.2,6.9,5.1,9.3
				c2.9,2.3,6.5,3.5,10.8,3.5c5.2,0,9.4-1.8,12.6-5.3l4.4,5.1c-2,2.3-4.4,4.1-7.4,5.3c-2.9,1.2-6.2,1.8-9.8,1.8
				c-4.6,0-8.7-0.9-12.3-2.8c-3.6-1.9-6.3-4.5-8.3-8s-2.9-7.3-2.9-11.5c0-4.2,0.9-8,2.8-11.5s4.5-6.1,7.8-8
				c3.3-1.9,7.1-2.8,11.2-2.8s7.9,0.9,11.2,2.8c3.3,1.9,5.8,4.5,7.7,8S401.2,257,401.2,261.3L401.2,261.3z M379.6,245.5
				c-3.8,0-7,1.2-9.5,3.5c-2.6,2.3-4.1,5.3-4.5,9.1h28c-0.4-3.7-1.9-6.7-4.5-9C386.6,246.7,383.4,245.5,379.6,245.5L379.6,245.5z
				 M472.4,238.9c6,0,10.7,1.5,13.9,4.5s4.8,7.4,4.8,13.3v26.4h-7.5v-5.8c-1.3,2-3.2,3.6-5.6,4.7c-2.4,1.1-5.3,1.6-8.7,1.6
				c-4.9,0-8.8-1.2-11.7-3.5c-2.9-2.4-4.4-5.5-4.4-9.3s1.4-6.9,4.2-9.3s7.3-3.5,13.4-3.5h12.5v-1.6c0-3.4-1-6-3-7.8
				s-4.9-2.7-8.7-2.7c-2.6,0-5.1,0.4-7.6,1.3c-2.5,0.9-4.6,2-6.3,3.4l-3.3-5.9c2.3-1.8,4.9-3.2,8.1-4.2
				C465.5,239.3,468.9,238.9,472.4,238.9L472.4,238.9z M470.6,277.3c3,0,5.6-0.7,7.8-2s3.8-3.3,4.8-5.7v-6.1H471
				c-6.7,0-10.1,2.3-10.1,6.8c0,2.2,0.9,3.9,2.6,5.2C465.2,276.7,467.5,277.3,470.6,277.3L470.6,277.3z M530.3,280.4
				c-1.2,1-2.6,1.7-4.3,2.3c-1.7,0.5-3.5,0.8-5.3,0.8c-4.4,0-7.8-1.2-10.2-3.5c-2.4-2.4-3.6-5.7-3.6-10.1v-24h-7.4v-6.5h7.4v-9.6
				h7.9v9.6h12.5v6.5h-12.5v23.7c0,2.4,0.6,4.2,1.8,5.4s2.9,1.9,5.1,1.9c2.4,0,4.5-0.7,6.2-2.1L530.3,280.4L530.3,280.4z
				 M579.4,261.3c0,0.6-0.1,1.4-0.2,2.4h-35.4c0.5,3.8,2.2,6.9,5.1,9.3c2.9,2.3,6.5,3.5,10.8,3.5c5.2,0,9.4-1.8,12.6-5.3l4.4,5.1
				c-2,2.3-4.4,4.1-7.4,5.3c-2.9,1.2-6.2,1.8-9.8,1.8c-4.6,0-8.7-0.9-12.3-2.8c-3.6-1.9-6.3-4.5-8.3-8s-2.9-7.3-2.9-11.5
				c0-4.2,0.9-8,2.8-11.5s4.5-6.1,7.8-8c3.3-1.9,7.1-2.8,11.2-2.8s7.9,0.9,11.2,2.8c3.3,1.9,5.8,4.5,7.7,8
				C578.4,253.1,579.4,257,579.4,261.3L579.4,261.3z M557.8,245.5c-3.8,0-7,1.2-9.5,3.5c-2.6,2.3-4.1,5.3-4.5,9.1h28
				c-0.4-3.7-1.9-6.7-4.5-9C564.7,246.7,561.6,245.5,557.8,245.5L557.8,245.5z M562.7,222.2h10.1l-13.8,10.7h-7.4L562.7,222.2
				L562.7,222.2z M628.4,238.9c6,0,10.7,1.5,13.9,4.5c3.2,3,4.8,7.4,4.8,13.3v26.4h-7.5v-5.8c-1.3,2-3.2,3.6-5.6,4.7
				c-2.4,1.1-5.3,1.6-8.7,1.6c-4.9,0-8.8-1.2-11.7-3.5s-4.4-5.5-4.4-9.3s1.4-6.9,4.2-9.3s7.3-3.5,13.3-3.5h12.5v-1.6
				c0-3.4-1-6-3-7.8c-2-1.8-4.9-2.7-8.7-2.7c-2.6,0-5.1,0.4-7.6,1.3c-2.5,0.9-4.6,2-6.3,3.4l-3.3-5.9c2.3-1.8,4.9-3.2,8.1-4.2
				C621.5,239.3,624.9,238.9,628.4,238.9L628.4,238.9z M626.6,277.3c3,0,5.6-0.7,7.8-2c2.2-1.3,3.8-3.3,4.8-5.7v-6.1H627
				c-6.7,0-10.1,2.3-10.1,6.8c0,2.2,0.9,3.9,2.6,5.2S623.6,277.3,626.6,277.3L626.6,277.3z M686.3,280.4c-1.2,1-2.6,1.7-4.3,2.3
				c-1.7,0.5-3.5,0.8-5.3,0.8c-4.4,0-7.8-1.2-10.2-3.5s-3.6-5.7-3.6-10.1v-24h-7.4v-6.5h7.4v-9.6h7.9v9.6h12.5v6.5h-12.5v23.7
				c0,2.4,0.6,4.2,1.8,5.4s2.9,1.9,5.1,1.9c2.4,0,4.5-0.7,6.2-2.1L686.3,280.4L686.3,280.4z M695.9,239.3h7.9v43.7h-7.9V239.3
				L695.9,239.3z M699.8,230.9c-1.5,0-2.8-0.5-3.8-1.5c-1-1-1.5-2.2-1.5-3.6s0.5-2.7,1.5-3.7s2.3-1.5,3.8-1.5c1.5,0,2.8,0.5,3.8,1.4
				c1,1,1.5,2.2,1.5,3.6c0,1.5-0.5,2.7-1.5,3.7C702.7,230.3,701.4,230.9,699.8,230.9L699.8,230.9z M742.2,238.9
				c5.5,0,10,1.6,13.2,4.8c3.3,3.2,4.9,7.9,4.9,14.1v25.1h-7.9v-24.2c0-4.2-1-7.4-3-9.6s-4.9-3.2-8.7-3.2c-4.3,0-7.7,1.2-10.1,3.7
				c-2.5,2.5-3.7,6.1-3.7,10.8v22.5h-7.9v-43.7h7.6v6.6c1.6-2.3,3.7-4,6.5-5.2S738.7,238.9,742.2,238.9L742.2,238.9z M816.8,239.3
				V277c0,7.6-1.9,13.3-5.7,16.9c-3.8,3.7-9.4,5.5-17,5.5c-4.1,0-8-0.6-11.8-1.7c-3.7-1.1-6.8-2.7-9.1-4.8l3.8-6.1
				c2,1.8,4.5,3.1,7.5,4.2s6.1,1.5,9.3,1.5c5.1,0,8.9-1.2,11.3-3.6s3.7-6.1,3.7-11v-3.5c-1.9,2.3-4.2,3.9-6.9,5.1
				c-2.7,1.1-5.7,1.7-8.9,1.7c-4.2,0-8-0.9-11.3-2.7s-6-4.3-8-7.5c-1.9-3.2-2.9-6.9-2.9-11s1-7.8,2.9-11c1.9-3.2,4.6-5.7,8-7.5
				c3.4-1.8,7.2-2.6,11.3-2.6c3.3,0,6.4,0.6,9.2,1.8s5.2,3,7,5.4v-6.8L816.8,239.3L816.8,239.3z M794,274.2c2.9,0,5.4-0.6,7.7-1.8
				c2.3-1.2,4.1-2.9,5.4-5.1c1.3-2.2,1.9-4.6,1.9-7.4c0-4.2-1.4-7.7-4.2-10.3s-6.4-3.9-10.8-3.9c-4.5,0-8.1,1.3-10.9,3.9
				s-4.2,6-4.2,10.3c0,2.7,0.6,5.2,1.9,7.4c1.3,2.2,3.1,3.9,5.4,5.1S791.1,274.2,794,274.2L794,274.2z M831.9,239.3h7.9v43.7h-7.9
				V239.3L831.9,239.3z M835.8,230.9c-1.5,0-2.8-0.5-3.8-1.5c-1-1-1.5-2.2-1.5-3.6s0.5-2.7,1.5-3.7s2.3-1.5,3.8-1.5
				c1.5,0,2.8,0.5,3.8,1.4s1.5,2.2,1.5,3.6c0,1.5-0.5,2.7-1.5,3.7C838.6,230.3,837.4,230.9,835.8,230.9L835.8,230.9z M862.4,246.6
				c1.4-2.5,3.4-4.5,6.1-5.8c2.7-1.3,6-2,9.8-2v7.7c-0.4-0.1-1-0.1-1.8-0.1c-4.3,0-7.7,1.3-10.1,3.8s-3.7,6.2-3.7,10.9v21.8h-7.9
				v-43.7h7.6L862.4,246.6L862.4,246.6z M929.5,283.4c-4.3,0-8.2-1-11.7-2.9c-3.5-1.9-6.2-4.6-8.1-8s-2.9-7.2-2.9-11.5
				c0-4.3,1-8.1,2.9-11.5s4.7-6,8.1-7.9c3.5-1.9,7.4-2.8,11.7-2.8s8.2,0.9,11.7,2.8c3.4,1.9,6.1,4.5,8.1,7.9c2,3.4,2.9,7.2,2.9,11.5
				c0,4.3-1,8.1-2.9,11.5c-2,3.4-4.6,6-8.1,8S933.9,283.4,929.5,283.4z M929.5,276.5c2.8,0,5.3-0.6,7.5-1.9c2.2-1.3,4-3.1,5.2-5.4
				c1.3-2.3,1.9-5,1.9-8s-0.6-5.7-1.9-8s-3-4.1-5.2-5.4c-2.2-1.3-4.7-1.9-7.5-1.9s-5.3,0.6-7.5,1.9s-4,3.1-5.3,5.4s-1.9,5-1.9,8
				s0.6,5.7,1.9,8c1.3,2.3,3,4.1,5.3,5.4C924.2,275.9,926.7,276.5,929.5,276.5z M1024,239.3l-19.1,43.7h-8.1l-19.1-43.7h8.2l15,35
				l15.3-35L1024,239.3L1024,239.3z M1047.3,238.8c6,0,10.7,1.5,13.9,4.5c3.2,3,4.8,7.4,4.8,13.3v26.4h-7.5v-5.8
				c-1.3,2-3.2,3.6-5.6,4.7c-2.4,1.1-5.3,1.6-8.7,1.6c-4.9,0-8.8-1.2-11.7-3.5c-2.9-2.4-4.4-5.5-4.4-9.3s1.4-6.9,4.2-9.3
				c2.8-2.3,7.3-3.5,13.3-3.5h12.5v-1.6c0-3.4-1-6-3-7.8s-4.9-2.7-8.7-2.7c-2.6,0-5.1,0.4-7.6,1.3c-2.5,0.9-4.6,2-6.3,3.4l-3.3-5.9
				c2.3-1.8,4.9-3.2,8.1-4.2C1040.4,239.3,1043.8,238.8,1047.3,238.8L1047.3,238.8z M1045.5,277.3c3,0,5.6-0.7,7.8-2
				s3.8-3.3,4.8-5.7v-6.1h-12.2c-6.7,0-10.1,2.3-10.1,6.8c0,2.2,0.9,3.9,2.6,5.2S1042.4,277.3,1045.5,277.3L1045.5,277.3z
				 M1080.7,221.8h7.9v61.1h-7.9V221.8L1080.7,221.8z M1122.4,283.4c-4.3,0-8.2-1-11.7-2.9c-3.5-1.9-6.2-4.6-8.1-8
				s-2.9-7.2-2.9-11.5c0-4.3,1-8.1,2.9-11.5s4.7-6,8.1-7.9c3.5-1.9,7.4-2.8,11.7-2.8c4.3,0,8.2,0.9,11.7,2.8s6.1,4.5,8.1,7.9
				s2.9,7.2,2.9,11.5c0,4.3-1,8.1-2.9,11.5s-4.6,6-8.1,8C1130.6,282.5,1126.7,283.4,1122.4,283.4z M1122.4,276.5
				c2.8,0,5.3-0.6,7.5-1.9c2.2-1.3,4-3.1,5.2-5.4c1.3-2.3,1.9-5,1.9-8s-0.6-5.7-1.9-8s-3-4.1-5.2-5.4c-2.2-1.3-4.7-1.9-7.5-1.9
				c-2.8,0-5.3,0.6-7.5,1.9s-4,3.1-5.3,5.4c-1.3,2.3-1.9,5-1.9,8s0.6,5.7,1.9,8s3,4.1,5.3,5.4C1117,275.9,1119.5,276.5,1122.4,276.5
				z M1163.6,246.6c1.4-2.5,3.4-4.5,6.1-5.8c2.7-1.3,6-2,9.8-2v7.7c-0.4-0.1-1-0.1-1.8-0.1c-4.3,0-7.7,1.3-10.1,3.8
				s-3.7,6.2-3.7,10.9v21.8h-7.9v-43.7h7.6L1163.6,246.6L1163.6,246.6z M1253.1,221.8v61.1h-7.6V276c-1.8,2.4-4,4.3-6.7,5.5
				c-2.7,1.3-5.7,1.9-8.9,1.9c-4.2,0-8-0.9-11.4-2.8c-3.4-1.9-6-4.5-7.9-7.9s-2.8-7.3-2.8-11.7s0.9-8.3,2.8-11.6s4.5-6,7.9-7.8
				s7.1-2.8,11.4-2.8c3.1,0,6,0.6,8.7,1.8s4.8,2.9,6.6,5.2v-24.1L1253.1,221.8L1253.1,221.8z M1230.6,276.5c2.7,0,5.2-0.6,7.5-1.9
				c2.3-1.3,4-3.1,5.3-5.4s1.9-5,1.9-8s-0.6-5.7-1.9-8s-3-4.1-5.3-5.4c-2.3-1.3-4.8-1.9-7.5-1.9c-2.8,0-5.3,0.6-7.5,1.9
				s-4,3.1-5.3,5.4c-1.3,2.3-1.9,5-1.9,8s0.6,5.7,1.9,8s3,4.1,5.3,5.4C1225.3,275.9,1227.8,276.5,1230.6,276.5z M1307.6,261.3
				c0,0.6-0.1,1.4-0.2,2.4H1272c0.5,3.8,2.2,6.9,5.1,9.3c2.9,2.3,6.5,3.5,10.8,3.5c5.2,0,9.4-1.8,12.6-5.3l4.4,5.1
				c-2,2.3-4.4,4.1-7.4,5.3c-2.9,1.2-6.2,1.8-9.8,1.8c-4.6,0-8.7-0.9-12.3-2.8c-3.6-1.9-6.3-4.5-8.3-8s-2.9-7.3-2.9-11.5
				c0-4.2,0.9-8,2.8-11.5s4.5-6.1,7.8-8c3.3-1.9,7.1-2.8,11.2-2.8s7.9,0.9,11.2,2.8c3.3,1.9,5.8,4.5,7.7,8S1307.6,257,1307.6,261.3
				L1307.6,261.3z M1286,245.5c-3.8,0-7,1.2-9.5,3.5c-2.6,2.3-4.1,5.3-4.5,9.1h28c-0.4-3.7-1.9-6.7-4.5-9
				C1293,246.7,1289.8,245.5,1286,245.5L1286,245.5z M1331.1,283.4c-3.6,0-7-0.5-10.3-1.4c-3.3-1-5.9-2.2-7.7-3.7l3.3-6.3
				c1.9,1.4,4.3,2.5,7,3.3s5.5,1.2,8.3,1.2c6.9,0,10.4-2,10.4-5.9c0-1.3-0.5-2.4-1.4-3.1c-0.9-0.8-2.1-1.3-3.5-1.7
				c-1.4-0.4-3.4-0.8-6-1.2c-3.5-0.5-6.4-1.2-8.6-1.9s-4.1-1.9-5.7-3.6c-1.6-1.7-2.4-4.1-2.4-7.2c0-4,1.6-7.1,4.9-9.5
				c3.3-2.4,7.7-3.6,13.3-3.6c2.9,0,5.8,0.4,8.7,1.1c2.9,0.7,5.3,1.7,7.2,2.9l-3.4,6.3c-3.6-2.3-7.8-3.5-12.6-3.5
				c-3.4,0-5.9,0.5-7.7,1.6s-2.6,2.6-2.6,4.4c0,1.4,0.5,2.6,1.5,3.4s2.2,1.4,3.7,1.8s3.5,0.8,6.1,1.3c3.5,0.6,6.4,1.2,8.5,1.9
				c2.2,0.7,4,1.9,5.6,3.5s2.3,4,2.3,6.9c0,4-1.7,7.1-5.1,9.4C1341.5,282.3,1336.9,283.4,1331.1,283.4L1331.1,283.4z M1399.3,261.3
				c0,0.6-0.1,1.4-0.2,2.4h-35.4c0.5,3.8,2.2,6.9,5.1,9.3c2.9,2.3,6.5,3.5,10.8,3.5c5.2,0,9.4-1.8,12.6-5.3l4.4,5.1
				c-2,2.3-4.4,4.1-7.4,5.3c-2.9,1.2-6.2,1.8-9.8,1.8c-4.6,0-8.7-0.9-12.3-2.8c-3.6-1.9-6.3-4.5-8.3-8s-2.9-7.3-2.9-11.5
				c0-4.2,0.9-8,2.8-11.5s4.5-6.1,7.8-8c3.3-1.9,7.1-2.8,11.2-2.8s7.9,0.9,11.2,2.8c3.3,1.9,5.8,4.5,7.7,8S1399.3,257,1399.3,261.3
				L1399.3,261.3z M1377.7,245.5c-3.8,0-7,1.2-9.5,3.5c-2.6,2.3-4.1,5.3-4.5,9.1h28c-0.4-3.7-1.9-6.7-4.5-9
				C1384.7,246.7,1381.5,245.5,1377.7,245.5L1377.7,245.5z M1404.7,299.4c-1.9,0-3.7-0.2-5.4-0.7s-3-1.1-4.1-2l2.6-6.1
				c1.6,1.4,3.8,2.1,6.4,2.1c2.1,0,3.7-0.6,4.8-1.9c1.1-1.3,1.7-3.2,1.7-5.7v-45.8h7.9v45.7c0,4.5-1.2,8-3.6,10.6
				S1409.1,299.4,1404.7,299.4L1404.7,299.4z M1414.7,230.9c-1.5,0-2.8-0.5-3.8-1.5c-1-1-1.5-2.2-1.5-3.6s0.5-2.7,1.5-3.7
				c1-1,2.3-1.5,3.8-1.5s2.8,0.5,3.8,1.4c1,1,1.5,2.2,1.5,3.6c0,1.5-0.5,2.7-1.5,3.7C1417.5,230.3,1416.2,230.9,1414.7,230.9
				L1414.7,230.9z M1449.6,238.9c6,0,10.7,1.5,13.9,4.5c3.2,3,4.8,7.4,4.8,13.3v26.4h-7.5v-5.8c-1.3,2-3.2,3.6-5.6,4.7
				c-2.4,1.1-5.3,1.6-8.7,1.6c-4.9,0-8.8-1.2-11.7-3.5c-2.9-2.4-4.4-5.5-4.4-9.3s1.4-6.9,4.2-9.3c2.8-2.3,7.3-3.5,13.3-3.5h12.5
				v-1.6c0-3.4-1-6-3-7.8s-4.9-2.7-8.7-2.7c-2.6,0-5.1,0.4-7.6,1.3c-2.5,0.9-4.6,2-6.3,3.4l-3.3-5.9c2.3-1.8,4.9-3.2,8.1-4.2
				C1442.8,239.3,1446.1,238.9,1449.6,238.9L1449.6,238.9z M1447.8,277.3c3,0,5.6-0.7,7.8-2s3.8-3.3,4.8-5.7v-6.1h-12.2
				c-6.7,0-10.1,2.3-10.1,6.8c0,2.2,0.9,3.9,2.6,5.2S1444.8,277.3,1447.8,277.3L1447.8,277.3z M1524.2,221.8v61.1h-7.6V276
				c-1.8,2.4-4,4.3-6.7,5.5c-2.7,1.3-5.7,1.9-8.9,1.9c-4.2,0-8-0.9-11.4-2.8c-3.4-1.9-6-4.5-7.9-7.9c-1.9-3.4-2.8-7.3-2.8-11.7
				s0.9-8.3,2.8-11.6c1.9-3.4,4.5-6,7.9-7.8s7.1-2.8,11.4-2.8c3.1,0,6,0.6,8.7,1.8s4.8,2.9,6.6,5.2v-24.1L1524.2,221.8L1524.2,221.8
				z M1501.7,276.5c2.7,0,5.2-0.6,7.5-1.9c2.3-1.3,4-3.1,5.3-5.4s1.9-5,1.9-8s-0.6-5.7-1.9-8s-3-4.1-5.3-5.4
				c-2.3-1.3-4.8-1.9-7.5-1.9c-2.8,0-5.3,0.6-7.5,1.9s-4,3.1-5.3,5.4c-1.3,2.3-1.9,5-1.9,8s0.6,5.7,1.9,8s3,4.1,5.3,5.4
				C1496.4,275.9,1498.9,276.5,1501.7,276.5z M1557.9,283.4c-4.3,0-8.2-1-11.7-2.9c-3.5-1.9-6.2-4.6-8.1-8s-2.9-7.2-2.9-11.5
				c0-4.3,1-8.1,2.9-11.5s4.7-6,8.1-7.9c3.5-1.9,7.4-2.8,11.7-2.8s8.2,0.9,11.7,2.8s6.1,4.5,8.1,7.9s2.9,7.2,2.9,11.5
				c0,4.3-1,8.1-2.9,11.5s-4.6,6-8.1,8C1566.1,282.5,1562.2,283.4,1557.9,283.4z M1557.9,276.5c2.8,0,5.3-0.6,7.5-1.9
				c2.2-1.3,4-3.1,5.2-5.4s1.9-5,1.9-8s-0.6-5.7-1.9-8s-3-4.1-5.2-5.4c-2.2-1.3-4.7-1.9-7.5-1.9s-5.3,0.6-7.5,1.9s-4,3.1-5.3,5.4
				c-1.3,2.3-1.9,5-1.9,8s0.6,5.7,1.9,8s3,4.1,5.3,5.4C1552.6,275.9,1555.1,276.5,1557.9,276.5z M1593.4,283.4c-1.5,0-2.9-0.5-4-1.6
				c-1.1-1.1-1.6-2.4-1.6-4.1c0-1.6,0.5-2.9,1.6-4s2.4-1.6,4-1.6s2.8,0.5,3.9,1.6c1,1,1.6,2.4,1.6,4s-0.5,3-1.6,4.1
				C1596.2,282.9,1594.9,283.4,1593.4,283.4L1593.4,283.4z"/>
			<path class="st14" d="M69.6,119.7c-11.8,0-22.4-2.6-31.9-7.7c-9.5-5.1-17-12.2-22.4-21.3c-5.4-9.1-8.2-19.3-8.2-30.7
				s2.7-21.7,8.2-30.7c5.4-9.1,12.9-16.2,22.4-21.3C47.2,3,57.9,0.4,69.7,0.4c10,0,19,1.8,27.1,5.3c8.1,3.5,14.9,8.6,20.4,15.2
				l-17.1,15.8c-7.8-9-17.5-13.5-29-13.5c-7.1,0-13.5,1.6-19.1,4.7s-10,7.5-13.1,13.1s-4.7,12-4.7,19.1s1.6,13.5,4.7,19.1
				s7.5,10,13.1,13.1S63.9,97,71,97c11.5,0,21.2-4.6,29-13.7l17.1,15.8c-5.5,6.7-12.3,11.8-20.4,15.3
				C88.6,118,79.6,119.7,69.6,119.7L69.6,119.7z M165.5,119.1c-9.3,0-17.7-2-25.1-5.9c-7.4-3.9-13.2-9.3-17.4-16.2
				c-4.2-6.9-6.3-14.8-6.3-23.6s2.1-16.6,6.3-23.6c4.2-6.9,10-12.3,17.4-16.2s15.8-5.9,25.1-5.9c9.3,0,17.7,2,25.1,5.9
				s13.1,9.3,17.3,16.2c4.2,6.9,6.3,14.8,6.3,23.6s-2.1,16.6-6.3,23.6c-4.2,6.9-9.9,12.3-17.3,16.2
				C183.2,117.1,174.9,119.1,165.5,119.1z M165.5,98c6.6,0,12-2.2,16.2-6.7c4.2-4.5,6.3-10.4,6.3-17.9c0-7.5-2.1-13.4-6.3-17.9
				c-4.2-4.5-9.6-6.7-16.2-6.7s-12,2.2-16.3,6.7c-4.3,4.5-6.4,10.4-6.4,17.9c0,7.5,2.1,13.4,6.4,17.9C153.5,95.7,158.9,98,165.5,98z
				 M278.3,27.8c11,0,19.9,3.3,26.6,9.9c6.8,6.6,10.1,16.4,10.1,29.3v50.8h-25.7V70.9c0-7-1.5-12.3-4.6-15.7
				c-3.1-3.5-7.5-5.2-13.4-5.2c-6.5,0-11.6,2-15.5,6c-3.8,4-5.8,10-5.8,17.9v43.8h-25.7V29.1H249v10.4c3.4-3.7,7.6-6.6,12.7-8.7
				S272.3,27.8,278.3,27.8L278.3,27.8z M388.7,113.5c-2.5,1.9-5.6,3.3-9.3,4.2c-3.7,0.9-7.6,1.4-11.6,1.4c-10.5,0-18.7-2.7-24.5-8.1
				c-5.8-5.4-8.7-13.3-8.7-23.7V50.8h-13.7V31.1h13.7V9.5h25.7v21.6h22.1v19.8h-22.1v36.1c0,3.7,1,6.6,2.9,8.7c1.9,2,4.6,3,8.2,3
				c4.1,0,7.5-1.1,10.4-3.3L388.7,113.5L388.7,113.5z M420.8,40.8c3.1-4.3,7.2-7.5,12.4-9.7c5.2-2.2,11.2-3.3,18-3.3v23.7
				c-2.9-0.2-4.8-0.3-5.8-0.3c-7.4,0-13.1,2.1-17.3,6.2c-4.2,4.1-6.3,10.3-6.3,18.5v41.9h-25.7V29.1h24.6L420.8,40.8L420.8,40.8z
				 M495.1,27.8c13.7,0,24.3,3.3,31.6,9.8s11,16.4,11,29.6v50.6h-24.1v-11c-4.8,8.2-13.8,12.4-27,12.4c-6.8,0-12.7-1.2-17.7-3.5
				c-5-2.3-8.8-5.5-11.5-9.6s-4-8.7-4-13.8c0-8.2,3.1-14.7,9.3-19.4c6.2-4.7,15.8-7.1,28.8-7.1H512c0-5.6-1.7-9.9-5.1-12.9
				c-3.4-3-8.5-4.5-15.3-4.5c-4.7,0-9.4,0.7-13.9,2.2c-4.6,1.5-8.4,3.5-11.6,6l-9.2-18c4.8-3.4,10.6-6,17.4-7.9
				C481,28.7,487.9,27.8,495.1,27.8L495.1,27.8z M493.1,101.8c4.4,0,8.3-1,11.7-3c3.4-2,5.8-5,7.3-9v-9.1h-17.6
				c-10.5,0-15.8,3.5-15.8,10.4c0,3.3,1.3,5.9,3.9,7.8C485,100.8,488.6,101.8,493.1,101.8L493.1,101.8z M611.3,113.5
				c-2.5,1.9-5.6,3.3-9.3,4.2c-3.7,0.9-7.6,1.4-11.6,1.4c-10.5,0-18.7-2.7-24.5-8.1s-8.7-13.3-8.7-23.7V50.8h-13.7V31.1h13.7V9.5
				H583v21.6h22.1v19.8H583v36.1c0,3.7,1,6.6,2.9,8.7c1.9,2,4.6,3,8.2,3c4.1,0,7.5-1.1,10.4-3.3L611.3,113.5L611.3,113.5z
				 M658.4,119.1c-9.3,0-17.7-2-25.1-5.9c-7.4-3.9-13.2-9.3-17.4-16.2c-4.2-6.9-6.3-14.8-6.3-23.6s2.1-16.6,6.3-23.6
				c4.2-6.9,10-12.3,17.4-16.2c7.4-3.9,15.8-5.9,25.1-5.9s17.7,2,25.1,5.9s13.1,9.3,17.3,16.2c4.2,6.9,6.3,14.8,6.3,23.6
				s-2.1,16.6-6.3,23.6c-4.2,6.9-9.9,12.3-17.3,16.2C676,117.1,667.7,119.1,658.4,119.1z M658.4,98c6.6,0,12-2.2,16.2-6.7
				s6.3-10.4,6.3-17.9c0-7.5-2.1-13.4-6.3-17.9c-4.2-4.5-9.6-6.7-16.2-6.7s-12,2.2-16.3,6.7c-4.3,4.5-6.4,10.4-6.4,17.9
				c0,7.5,2.1,13.4,6.4,17.9C646.3,95.7,651.8,98,658.4,98z M747.1,119.1c-7.4,0-14.6-0.9-21.6-2.7s-12.6-4.1-16.8-6.8l8.6-18.5
				c4,2.5,8.7,4.6,14.3,6.2s11.1,2.4,16.5,2.4c10.9,0,16.3-2.7,16.3-8.1c0-2.5-1.5-4.3-4.5-5.4s-7.5-2-13.7-2.8
				c-7.3-1.1-13.2-2.4-18-3.8c-4.7-1.4-8.8-4-12.3-7.6s-5.2-8.8-5.2-15.5c0-5.6,1.6-10.6,4.9-14.9c3.2-4.3,8-7.7,14.2-10.1
				s13.5-3.6,22-3.6c6.3,0,12.5,0.7,18.7,2.1c6.2,1.4,11.3,3.3,15.4,5.7l-8.6,18.3c-7.8-4.4-16.3-6.6-25.5-6.6
				c-5.5,0-9.6,0.8-12.4,2.3c-2.7,1.5-4.1,3.5-4.1,5.9c0,2.7,1.5,4.7,4.5,5.8c3,1.1,7.7,2.1,14.2,3.1c7.3,1.2,13.2,2.5,17.8,3.9
				c4.6,1.4,8.6,3.9,12,7.5c3.4,3.6,5.1,8.7,5.1,15.2c0,5.5-1.6,10.4-4.9,14.7c-3.3,4.3-8.1,7.6-14.4,10S755.8,119.1,747.1,119.1
				L747.1,119.1z"/>
		</g>
	</g>
	<defs>
		<filter id="Adobe_OpacityMaskFilter_4_" filterUnits="userSpaceOnUse" x="0" y="0" width="2012.3" height="480">
			<feColorMatrix  type="matrix" values="1 0 0 0 0  0 1 0 0 0  0 0 1 0 0  0 0 0 1 0"/>
		</filter>
	</defs>
	<mask maskUnits="userSpaceOnUse" x="0" y="0" width="2012.3" height="480" id="a_4_">
		<g class="st21">
			<path id="e_4_" class="st0" d="M78.4,0h1855.8c43.3,0,78.4,35.1,78.4,78.4v3990.7c0,43.3-35.1,78.4-78.4,78.4H78.4
				c-43.3,0-78.4-35.1-78.4-78.4V78.4C0,35.1,35.1,0,78.4,0z"/>
		</g>
	</mask>
	<g class="st22">
		<rect class="st23" width="2012.3" height="480"/>
		<g transform="translate(690 180)">
			<path class="st24" d="M70,81.3l23.4,23.5v16.4L70,97.7l-0.2,0.2v0l-20.1,20.2l-3,3l0,0L23.3,97.7v0l-2.3,2.3L0,121.2v-16.6
				l23.3-23.4l23.4,23.4L70,81.3L70,81.3z M23.3,79.3L0.1,102.6V86.4l23.3-23.3l23.4,23.4L70,63.1l23.5,23.6v16.2L70,79.3
				l-23.3,23.3L23.3,79.3L23.3,79.3z"/>
			<path class="st24" d="M46.7,66.7L44,63.9L23.3,43.2V26.9l23.3,23.5l3-3.1L93.4,3.4v16.3L46.7,66.7L46.7,66.7z M23.3,61.1V45.2
				l23.4,23.4l46.7-46.8v15.9L46.7,84.5C46.7,84.5,23.3,61.1,23.3,61.1z"/>
			<path class="st25" d="M0.1,86.4l23.3-23.3v16.2L0.1,102.6L0.1,86.4L0.1,86.4z M0,121.2v-16.6l23.3-23.4v16.5l-2.3,2.3L0,121.2
				L0,121.2z M93.4,3.5v16.3L46.7,66.7V50.4l3-3L93.4,3.5L93.4,3.5z M46.7,84.6L46.7,84.6l0-15.9l0,0l46.7-46.8v15.9L46.7,84.6z
				 M46.7,86.5l23.4-23.4v16.2l-23.4,23.4C46.7,102.7,46.7,86.5,46.7,86.5z M70.1,97.7L70.1,97.7L70.1,97.7l-23.3,23.4l0,0v-16.5
				l23.4-23.4L70.1,97.7L70.1,97.7z"/>
			<path class="st24" d="M46.7,68.7v15.9L23.4,61.2V45.3L46.7,68.7L46.7,68.7z M46.7,86.5v16.2L23.4,79.3V63.1L46.7,86.5z
				 M23.4,97.7V81.2l23.4,23.4v16.5l0,0L23.4,97.7L23.4,97.7L23.4,97.7L23.4,97.7z M46.7,50.4L46.7,50.4l0,16.3l0,0L44,64L23.4,43.2
				V26.9L46.7,50.4L46.7,50.4z M93.3,86.4v16.2L70.1,79.3V63.1L93.3,86.4L93.3,86.4z M93.4,121.2L72.3,100l-2.3-2.3V81.2l23.3,23.4
				L93.4,121.2L93.4,121.2z"/>
			<path class="st26" d="M114,30.8c4.6-0.8,11.1-1.4,20.2-1.4c9.2,0,15.8,1.8,20.2,5.3c4.3,3.3,7.1,8.8,7.1,15.3
				c0,6.5-2.1,12.1-6.1,15.7c-5.1,4.7-12.7,7-21.5,7c-2,0-3.7-0.1-5.1-0.4v23.8H114L114,30.8L114,30.8z M128.8,60.9V41.4
				c1.1-0.3,3.1-0.5,6.1-0.5c7.6,0,11.8,3.6,11.8,9.7c0,6.7-4.9,10.7-12.9,10.7C131.6,61.3,130.1,61.2,128.8,60.9L128.8,60.9z
				 M203.6,84.6c0,4.5,0.2,8.9,0.8,11.6h-13.5l-0.9-4.8h-0.3c-3.1,3.8-8.1,5.9-13.7,5.9c-9.7,0-15.5-7.1-15.5-14.7
				c0-12.5,11.2-18.4,28.2-18.4v-0.6c0-2.7-1.4-6.3-8.7-6.3c-4.9,0-10.1,1.7-13.3,3.6l-2.8-9.6c3.3-1.9,9.9-4.3,18.7-4.3
				c16,0,21,9.4,21,20.8L203.6,84.6L203.6,84.6z M210.3,64c0-7.1-0.1-11.7-0.4-15.8h12.8l0.6,8.9h0.4c2.5-7.1,8.3-10,13-10
				c1.4,0,2.1,0.1,3.1,0.3v14.1c-1.2-0.2-2.3-0.4-4-0.4c-5.5,0-9.2,2.9-10.2,7.6c-0.2,1-0.3,2.2-0.3,3.3v24.4h-14.9L210.3,64
				L210.3,64z M281.3,84.6c0,4.5,0.2,8.9,0.8,11.6h-13.5l-0.9-4.8h-0.3c-3.1,3.8-8.1,5.9-13.8,5.9c-9.7,0-15.5-7.1-15.5-14.7
				c0-12.5,11.2-18.4,28.2-18.4v-0.6c0-2.7-1.4-6.3-8.7-6.3c-4.9,0-10.1,1.7-13.3,3.6l-2.7-9.6c3.3-1.9,9.9-4.3,18.7-4.3
				c16,0,21,9.4,21,20.8L281.3,84.6L281.3,84.6z M287.9,63.5c0-6-0.2-11-0.4-15.3h13l0.7,6.7h0.3c2-3.1,6.8-7.8,14.8-7.8
				c9.8,0,17.2,6.6,17.2,20.7v28.4h-14.9V69.6c0-6.2-2.2-10.4-7.6-10.4c-4.1,0-6.6,2.8-7.7,5.6c-0.4,1-0.5,2.4-0.5,3.7v27.7h-14.9
				L287.9,63.5L287.9,63.5z M380.3,84.6c0,4.5,0.2,8.9,0.8,11.6h-13.5l-0.9-4.8h-0.3c-3.1,3.8-8.1,5.9-13.8,5.9
				c-9.7,0-15.5-7.1-15.5-14.7c0-12.5,11.2-18.4,28.2-18.4v-0.6c0-2.7-1.4-6.3-8.7-6.3c-4.9,0-10.1,1.7-13.3,3.6l-2.7-9.6
				c3.3-1.9,9.9-4.3,18.7-4.3c16,0,21,9.4,21,20.8L380.3,84.6L380.3,84.6z M375.7,27.2l-12,14.9h-10.2l8.5-14.9H375.7L375.7,27.2z
				 M387.4,30.8c3.9-0.7,11.8-1.4,19.4-1.4c9.1,0,14.7,0.9,19.7,3.7c4.6,2.5,7.8,7,7.8,13.1c0,5.8-3.4,11.2-10.9,14.1v0.2
				c7.6,2,13.2,7.8,13.2,16.2c0,6.1-2.8,10.8-6.9,14.2c-4.8,3.8-12.9,6-26,6c-7.4,0-12.9-0.5-16.2-1L387.4,30.8L387.4,30.8z
				 M481.4,84.6c0,4.5,0.2,8.9,0.8,11.6h-13.5l-0.9-4.8h-0.3c-3.1,3.8-8.1,5.9-13.8,5.9c-9.7,0-15.5-7.1-15.5-14.7
				c0-12.5,11.2-18.4,28.2-18.4v-0.6c0-2.7-1.4-6.3-8.7-6.3c-4.9,0-10.1,1.7-13.3,3.6l-2.7-9.6c3.3-1.9,9.9-4.3,18.7-4.3
				c16,0,21,9.4,21,20.8L481.4,84.6L481.4,84.6z M488,63.5c0-6-0.2-11-0.4-15.3h13l0.7,6.7h0.3c2-3.1,6.8-7.8,14.8-7.8
				c9.8,0,17.2,6.6,17.2,20.7v28.4h-14.9V69.6c0-6.2-2.2-10.4-7.6-10.4c-4.1,0-6.6,2.8-7.7,5.6c-0.4,1-0.5,2.4-0.5,3.7v27.7H488
				L488,63.5L488,63.5z M576.4,94.9c-2.7,1.3-7.7,2.3-13.4,2.3c-15.5,0-25.5-9.5-25.5-24.6c0-14.1,9.6-25.6,27.5-25.6
				c3.9,0,8.2,0.7,11.4,1.9L574.2,60c-1.8-0.8-4.4-1.5-8.3-1.5c-7.9,0-13,5.6-12.9,13.5c0,8.8,5.9,13.5,13.2,13.5
				c3.5,0,6.3-0.6,8.6-1.6L576.4,94.9L576.4,94.9z M625.8,71.6c0,17.6-12.5,25.6-25.3,25.6c-14.1,0-24.9-9.2-24.9-24.8
				c0-15.6,10.2-25.6,25.8-25.6C616,46.9,625.8,57.1,625.8,71.6L625.8,71.6z M189.1,73.5c-7.9,0-13.9,1.9-13.9,7.6
				c0,3.8,2.5,5.7,5.9,5.7c3.6,0,6.8-2.5,7.8-5.5c0.2-0.8,0.3-1.7,0.3-2.5L189.1,73.5L189.1,73.5z M266.8,73.5c-7.9,0-14,1.9-14,7.6
				c0,3.8,2.6,5.7,5.9,5.7c3.6,0,6.8-2.5,7.8-5.5c0.2-0.8,0.3-1.7,0.3-2.5L266.8,73.5L266.8,73.5z M365.9,73.5c-7.9,0-14,1.9-14,7.6
				c0,3.8,2.6,5.7,5.9,5.7c3.6,0,6.8-2.5,7.8-5.5c0.2-0.8,0.3-1.7,0.3-2.5L365.9,73.5L365.9,73.5z M402.3,56.2h4.9
				c8,0,12.1-3.2,12.1-8.2c0-5-3.8-7.7-10.6-7.7c-3.3,0-5.2,0.2-6.4,0.4L402.3,56.2L402.3,56.2z M402.3,85.6
				c1.5,0.2,3.2,0.2,5.8,0.2c6.8,0,12.8-2.6,12.8-9.6c0-6.6-6-9.2-13.5-9.2h-5.1L402.3,85.6L402.3,85.6z M466.9,73.5
				c-7.9,0-14,1.9-14,7.6c0,3.8,2.5,5.7,5.9,5.7c3.6,0,6.8-2.5,7.8-5.5c0.2-0.8,0.3-1.7,0.3-2.5L466.9,73.5L466.9,73.5z M591.1,72.1
				c0,8.2,3.4,14.4,9.8,14.4c5.9,0,9.5-5.8,9.5-14.5c0-7.1-2.7-14.4-9.5-14.4C593.8,57.7,591.1,65,591.1,72.1L591.1,72.1z"/>
		</g>
	</g>
	<defs>
		<filter id="Adobe_OpacityMaskFilter_5_" filterUnits="userSpaceOnUse" x="0" y="0" width="2012.6" height="4147.5">
			<feColorMatrix  type="matrix" values="1 0 0 0 0  0 1 0 0 0  0 0 1 0 0  0 0 0 1 0"/>
		</filter>
	</defs>
	<mask maskUnits="userSpaceOnUse" x="0" y="0" width="2012.6" height="4147.5" id="a_5_">
		<g class="st27">
			<path id="e_5_" class="st0" d="M78.4,0h1855.8c43.3,0,78.4,35.1,78.4,78.4v3990.7c0,43.3-35.1,78.4-78.4,78.4H78.4
				c-43.3,0-78.4-35.1-78.4-78.4V78.4C0,35.1,35.1,0,78.4,0z"/>
		</g>
	</mask>
	<g class="st28">
		
			<linearGradient id="SVGID_1_" gradientUnits="userSpaceOnUse" x1="443.7922" y1="3291.7063" x2="444.7604" y2="3291.7063" gradientTransform="matrix(2012.6 0 0 -4147.5 -893150.375 13654426)">
			<stop  offset="0" style="stop-color:#000000;stop-opacity:0"/>
			<stop  offset="1.881200e-02" style="stop-color:#FFFFFF"/>
			<stop  offset="3.431500e-02" style="stop-color:#FFFFFF;stop-opacity:6.136800e-02"/>
			<stop  offset="0.1281" style="stop-color:#FFFFFF;stop-opacity:0"/>
			<stop  offset="0.8595" style="stop-color:#FFFFFF;stop-opacity:0"/>
			<stop  offset="0.9709" style="stop-color:#FFFFFF;stop-opacity:0"/>
			<stop  offset="0.9822" style="stop-color:#FFFFFF"/>
			<stop  offset="1" style="stop-color:#000000;stop-opacity:0"/>
		</linearGradient>
		<rect class="st29" width="2012.6" height="4147.5"/>
	</g>
</g>
</svg>
